<?xml version="1.0" encoding="utf-8"?>
<svg  viewBox="0 0 200 50" xmlns="http://www.w3.org/2000/svg">



  <svg id="logo-mobile" viewBox="0 0 96 15">
    <path d="M94.91 6.19C95.64 5.73 96 5.02 96 4.06a3.4 3.4 0 00-1.57-2.96 6 6 0 00-3.6-1.1c-1.34 0-2.57.4-3.7 1.2a3.66 3.66 0 00-1.65 3.12c0 .5.16.9.46 1.22.3.3.74.46 1.3.46s.98-.16 1.27-.46c.3-.33.46-.73.46-1.22-.03-.37.1-.75.37-1.13.27-.4.77-.6 1.5-.6.6.02 1.04.17 1.3.47.28.3.4.59.38.88 0 .2-.08.41-.22.62-.15.2-.3.36-.46.48-.14.11-.38.28-.72.5l-.7.46a2.58 2.58 0 00-1.13 2.19c0 .45.16.82.48 1.13.34.3.78.44 1.33.44s.99-.14 1.3-.44c.34-.3.5-.68.5-1.13a1.32 1.32 0 01.46-1l.44-.35c.13-.09.32-.2.57-.34l.54-.31zM76.3 10.24l3.86-4.78c.4-.57.93-.9 1.61-.96.68-.08 1.27.09 1.78.5.51.4.75.94.72 1.62v6.84c0 .43-.17.8-.5 1.1-.33.28-.73.43-1.2.43a1.8 1.8 0 01-1.2-.43c-.33-.3-.49-.67-.49-1.1V9.2L77.03 14c-.4.57-.94.9-1.61.96a2.32 2.32 0 01-1.78-.5c-.51-.4-.75-.94-.72-1.62V6c0-.43.16-.8.48-1.1.34-.3.74-.45 1.21-.45s.86.15 1.19.45c.34.3.5.67.5 1.1v4.23z"/>
    <path fill-rule="evenodd" clip-rule="evenodd" d="M58.97 13.39V5.98c0-.43-.18-.8-.54-1.1a1.73 1.73 0 00-1.22-.48c-.45 0-.85.16-1.2.48-.34.3-.5.67-.5 1.1V5.8c-.18-.4-.52-.74-1.03-1.02-.52-.3-1.1-.44-1.76-.44-1.28 0-2.47.47-3.55 1.42a4.97 4.97 0 00-1.58 3.9c0 1.68.52 3 1.56 3.93a5.2 5.2 0 003.57 1.4c.66 0 1.23-.12 1.73-.36.5-.26.87-.56 1.1-.9.08.36.28.66.6.9.3.22.66.34 1.06.34.47 0 .88-.16 1.22-.46.36-.3.54-.68.54-1.12zm-5.47-1.36c1.17 0 2.11-1.03 2.11-2.3 0-1.26-.94-2.29-2.11-2.29s-2.12 1.03-2.12 2.3c0 1.26.95 2.29 2.12 2.29z"/>
    <path d="M43.08 8.24V6.09c0-.43.18-.8.53-1.1a1.8 1.8 0 011.24-.48c.47 0 .88.16 1.23.48.36.3.53.67.53 1.1v7.35c0 .43-.17.8-.53 1.1-.34.3-.75.46-1.23.46-.49 0-.9-.15-1.26-.46-.34-.3-.5-.67-.5-1.1v-2.18h-3.83v2.18c0 .43-.17.8-.53 1.1-.33.3-.75.46-1.23.46-.49 0-.9-.15-1.26-.46-.34-.3-.5-.67-.5-1.1V6.09c0-.43.17-.8.52-1.1a1.8 1.8 0 011.24-.48c.47 0 .88.16 1.23.48.36.3.53.67.53 1.1v2.15h3.82zM33.96 4.51c.35 0 .64.13.9.4.24.26.36.86.36 1.23s-.12.75-.37 1c-.25.27-.54.36-.89.36H31v5.97c0 1.13-.99 1.53-1.99 1.53-.92 0-1.8-.5-1.8-1.52l.03-8.97h6.72zM12.86 0v13.33c0 .44-.24.81-.57 1.12-.32.3-.82.46-1.28.46-.45 0-1.1-.15-1.44-.46a1.5 1.5 0 01-.47-1.12V3.01H3.77v10.32c0 .44-.16.81-.5 1.12-.31.3-.96.46-1.41.46a2.2 2.2 0 01-1.38-.46A1.5 1.5 0 010 13.33V0h12.86zM24.64 13.37a6.06 6.06 0 01-4.32 1.51c-1.8 0-3.24-.5-4.3-1.52a5.06 5.06 0 01-1.64-3.84c0-1.56.54-2.84 1.64-3.85a5.97 5.97 0 014.3-1.51c1.8 0 3.24.5 4.32 1.51a5.1 5.1 0 011.61 3.85 5.1 5.1 0 01-1.61 3.85zm-2.8-5.44c-.3-.31-.68-.5-1.12-.56a2.29 2.29 0 00-1.24.11c-.38.15-.7.4-.97.77-.25.36-.36.79-.33 1.27 0 .63.2 1.16.6 1.58.4.4.92.61 1.54.61.63 0 1.14-.2 1.54-.59.4-.4.6-.94.6-1.6 0-.64-.21-1.16-.62-1.59zM64.02 4.46l7.42.03v8.9c0 .44-.18.82-.54 1.14-.35.3-.66.46-1.2.46-.52 0-.8.04-1.16-.27a2.1 2.1 0 01-.66-1.33V7.44h-2.46c0 4.26 0 5.2-1.57 6.72-.58.55-1.33.83-2.24.83-.54 0-.86-.13-1.21-.44a1.9 1.9 0 01-.62-1.3c0-1.02.22-1.43.76-2.09 1.57 0 1.5-.38 1.4-3.27V6.06l.1-1.6h1.98zM93.16 12.75a2.3 2.3 0 01-2.34 2.24c-1.3 0-2.35-1-2.35-2.24a2.3 2.3 0 012.35-2.25c1.29 0 2.34 1 2.34 2.25z"/>
  </svg>

  <svg class="no-mobile" id="logo-tablet" viewBox="0 0 166 42">
    <path d="M78.02 10.62L44.74 42 32.59 1.77l45.43 8.85z" fill="#FF8D30"/>
    <ellipse cx="78.62" cy="28.47" rx="3.61" ry="3.57" fill="#88BFEB"/>
    <ellipse cx="92.85" cy="18.09" rx="12.59" ry="12.45" fill="#EB9898"/>
    <path fill="#72A73E" d="M85.44 19.57l43.82-16.03 8.26 22.06L93.7 41.63z"/><ellipse cx="91.33" cy="34.14" rx="2.12" ry="2.09" fill="#FFBD30"/>
    <ellipse rx="18.92" ry="7.59" transform="matrix(.97025 .24212 -.24742 .9689 132.05 28.05)" fill="#8EC7F5"/>
    <ellipse cx="146.38" cy="10.26" rx="2.15" ry="2.13" fill="#FFBD30"/>
    <ellipse cx="153.1" cy="7.73" rx="2.15" ry="2.13" fill="#FFBD30"/>
    <path d="M3.34 35.35h5v2.32a1 1 0 01-1 1h-3a1 1 0 01-1-1v-2.32zM34.2 35.35h5v2.32a1 1 0 01-1 1h-3a1 1 0 01-1-1v-2.32z" fill="#1D2959"/>
    <path fill-rule="evenodd" clip-rule="evenodd" d="M23.92 2.94a8.18 8.18 0 00-2.8-.68 8.2 8.2 0 00-2.64.7c-.5.21-1 .44-1.49.7-.58.32-1.3.11-1.61-.46-.32-.57-.11-1.28.46-1.6a15 15 0 011.74-.82C18.53.4 19.87.02 21.07 0c1.27-.02 2.7.35 3.72.75.64.25 1.26.52 1.86.85.58.3.8 1.02.48 1.6a1.2 1.2 0 01-1.6.47 13 13 0 00-1.6-.73z" fill="#8A4A38"/>
    <path fill-rule="evenodd" clip-rule="evenodd" d="M16 1.45a.96.96 0 00-.97.96v.62c0 .44.36.8.8.8h.02v3.06h.84V3.81h-.21a1.19 1.19 0 00-.23-2.36h-.26zM26.51 1.45c.53 0 .96.43.96.96v.62a.8.8 0 01-.8.8h-.02v3.06h-.84V3.81h.22a1.19 1.19 0 01.23-2.36h.25z" fill="#F6EF3E"/>
    <path d="M0 15.52a9 9 0 019-9h24.54a9 9 0 019 9v19.83H0V15.52z" fill="#8A4A38"/>
    <ellipse cx="6.68" cy="27.93" rx="4.17" ry="4.12" fill="#EF9A9A"/>
    <ellipse rx="4.02" ry="7.73" transform="matrix(.70085 -.71331 .72133 .69259 32.77 28.07)" fill="#93C6EB"/>
    <path fill="#C2DEA3" d="M16.4 17.9l9.43-9.92 5.59 5.2-9.43 9.92z"/>
    <rect width="6.96" height="5.22" rx="1" transform="matrix(.7339 .67927 -.68766 .72603 8.79 11.14)" fill="#C49A6C"/>
    <path fill="#F57B20" d="M8.33 19.36h5.87v16.8H8.33z"/>
    <path d="M8.33 5.43h5.87v14.55a2.93 2.93 0 01-5.87 0V5.43z" fill="#F6A725"/>
    <path fill="#F6EF3E" d="M7.52 18.04h7.5v1.65h-7.5z"/>
    <path fill="#F57B20" d="M28.35 19.36h5.87v16.8h-5.87z"/>
    <path d="M28.35 5.43h5.86v14.55a2.93 2.93 0 01-5.86 0V5.43z" fill="#F6A725"/>
    <path fill="#F6EF3E" d="M27.53 18.04h7.5v1.65h-7.5z"/>
    <g class="logo-word">
      <path d="M164.79 19.06c.8-.51 1.21-1.3 1.21-2.35 0-1.38-.58-2.47-1.74-3.26a6.72 6.72 0 00-4-1.2 7 7 0 00-4.11 1.3c-1.23.87-1.85 2.02-1.85 3.46 0 .53.17.98.51 1.33.34.34.83.5 1.46.5.6 0 1.08-.16 1.4-.5.34-.35.5-.8.5-1.33-.02-.41.11-.83.42-1.25.3-.44.86-.66 1.67-.66.68.02 1.16.19 1.45.51.31.32.45.65.42.97 0 .23-.09.45-.25.68-.16.23-.33.4-.5.53-.17.13-.43.3-.8.55l-.78.5a2.83 2.83 0 00-1.26 2.42c0 .49.18.9.53 1.24.38.33.87.49 1.48.49s1.1-.16 1.45-.49c.38-.33.56-.75.56-1.24 0-.22.04-.41.12-.6.08-.18.21-.35.39-.5l.48-.38c.15-.1.36-.23.63-.38.3-.16.5-.27.6-.34zM144.1 23.5l4.29-5.24a2.36 2.36 0 011.79-1.06 2.6 2.6 0 011.98.54c.56.45.83 1.04.8 1.8v7.51c0 .48-.19.88-.57 1.21-.36.32-.8.48-1.32.48-.51 0-.96-.16-1.34-.48a1.58 1.58 0 01-.54-1.2v-4.67l-4.3 5.25c-.43.63-1.03.98-1.78 1.05a2.6 2.6 0 01-1.98-.54 2.05 2.05 0 01-.8-1.79v-7.5c0-.47.18-.87.54-1.2.38-.34.82-.5 1.34-.5.52 0 .96.16 1.32.5.38.33.57.73.57 1.2v4.65z"/>
      <path fill-rule="evenodd" clip-rule="evenodd" d="M124.82 26.98v-8.16c0-.47-.2-.87-.6-1.2a1.93 1.93 0 00-1.35-.54c-.51 0-.95.18-1.34.53-.38.34-.57.74-.57 1.21v-.2a2.42 2.42 0 00-1.14-1.12 3.9 3.9 0 00-1.95-.48c-1.43 0-2.74.52-3.95 1.56a5.43 5.43 0 00-1.76 4.29c0 1.86.58 3.3 1.74 4.33a5.82 5.82 0 003.97 1.54c.73 0 1.37-.13 1.93-.4.55-.28.96-.6 1.21-.99.1.4.32.73.67 1a2 2 0 001.19.37c.52 0 .97-.17 1.35-.51.4-.34.6-.75.6-1.23zm-6.09-1.5c1.3 0 2.36-1.13 2.36-2.52 0-1.4-1.06-2.52-2.36-2.52-1.3 0-2.35 1.13-2.35 2.52 0 1.4 1.05 2.52 2.35 2.52z"/>
      <path d="M107.15 21.31v-2.36c0-.48.2-.88.59-1.22a2 2 0 011.37-.52 2 2 0 011.38.52c.39.34.59.74.59 1.22v8.08c0 .48-.2.89-.6 1.22a2 2 0 01-1.37.5c-.54 0-1-.17-1.4-.5a1.57 1.57 0 01-.56-1.22v-2.4h-4.25v2.4c0 .48-.2.89-.58 1.22a2 2 0 01-1.38.5c-.54 0-1-.17-1.4-.5a1.57 1.57 0 01-.56-1.22v-8.08c0-.48.2-.88.59-1.22a2 2 0 011.37-.52 2 2 0 011.38.52c.39.34.59.74.59 1.22v2.36h4.24zM97 17.21c.4 0 .72.15 1 .43.27.3.41.96.41 1.36 0 .4-.14.82-.41 1.11-.28.3-.6.4-1 .4h-3.28v6.56c0 1.25-1.1 1.68-2.21 1.68-1.03 0-2.01-.55-2.01-1.67l.03-9.87h7.48zM73.54 12.25v14.67c0 .48-.27.89-.64 1.23-.35.33-.9.5-1.41.5-.5 0-1.24-.17-1.6-.5a1.64 1.64 0 01-.53-1.23V15.56h-5.92v11.36c0 .48-.19.89-.56 1.23-.35.33-1.07.5-1.57.5s-1.17-.17-1.54-.5a1.64 1.64 0 01-.53-1.23V12.25h14.3zM86.64 26.95a6.78 6.78 0 01-4.8 1.67c-2.01 0-3.6-.56-4.79-1.67a5.54 5.54 0 01-1.82-4.23c0-1.7.6-3.12 1.82-4.23 1.18-1.11 2.78-1.67 4.78-1.67 2.01 0 3.61.56 4.81 1.67a5.58 5.58 0 011.8 4.23c0 1.7-.6 3.1-1.8 4.23zm-3.12-5.97a2.05 2.05 0 00-1.24-.63 2.57 2.57 0 00-1.37.13c-.42.17-.78.45-1.08.85-.29.4-.4.86-.37 1.39 0 .7.22 1.28.66 1.74.45.45 1.03.68 1.71.68.7 0 1.28-.22 1.72-.65.44-.45.66-1.04.66-1.77 0-.7-.23-1.28-.69-1.74zM130.44 17.16l8.25.03v9.79c0 .48-.2.9-.6 1.26-.4.33-.74.5-1.33.5-.59 0-.89.04-1.3-.3a2.3 2.3 0 01-.74-1.46v-6.55H132c0 4.7 0 5.72-1.75 7.4-.64.6-1.47.9-2.48.9-.6 0-.96-.14-1.35-.47a2.08 2.08 0 01-.69-1.44c0-1.12.24-1.56.85-2.3 1.74 0 1.67-.41 1.56-3.59v-2.01c.01-.49.1-1.76.1-1.76h2.2zM162.84 26.27a2.54 2.54 0 01-2.6 2.47c-1.45 0-2.61-1.1-2.61-2.47a2.54 2.54 0 012.6-2.47c1.44 0 2.61 1.1 2.61 2.47z"/>
    </g>
    <defs>
      <filter id="filter0_d_17237_1793" x="57.24" y="11.25" width="110.76" height="20.5" filterUnits="userSpaceOnUse" color-interpolation-filters="sRGB">
      <feFlood flood-opacity="0" result="BackgroundImageFix"/>
      <feColorMatrix in="SourceAlpha" values="0 0 0 0 0 0 0 0 0 0 0 0 0 0 0 0 0 0 127 0" result="hardAlpha"/>
      <feOffset dy="1"/>
      <feGaussianBlur stdDeviation="1"/>
      <feColorMatrix values="0 0 0 0 0 0 0 0 0 0 0 0 0 0 0 0 0 0 0.3 0"/>
      <feBlend in2="BackgroundImageFix" result="effect1_dropShadow_17237_1793"/>
      <feBlend in="SourceGraphic" in2="effect1_dropShadow_17237_1793" result="shape"/></filter>
    </defs>
  </svg>
  <svg class="no-mobile" id="logo-desktop" viewBox="0 0 200 50">
    <path d="M94 12.64L53.9 50 39.26 2.1 94 12.65z" fill="#FF8D30"/><ellipse cx="94.73" cy="33.9" rx="4.35" ry="4.25" fill="#88BFEB"/>
    <ellipse cx="111.87" cy="21.53" rx="15.17" ry="14.82" fill="#EB9898"/>
    <path fill="#72A73E" d="M102.94 23.3l52.8-19.08 9.94 26.26-52.8 19.08z"/>
    <ellipse cx="110.04" cy="40.64" rx="2.55" ry="2.49" fill="#FFBD30"/><ellipse rx="22.78" ry="9.04" transform="matrix(.97092 .2394 -.25022 .96819 159.1 33.4)" fill="#8EC7F5"/>
    <ellipse cx="176.37" cy="12.21" rx="2.59" ry="2.53" fill="#FFBD30"/><ellipse cx="184.46" cy="9.2" rx="2.59" ry="2.53" fill="#FFBD30"/>
    <path d="M4.03 42.08h6v2.95a1 1 0 01-1 1h-4a1 1 0 01-1-1v-2.95zM41.2 42.08h6.02v2.95a1 1 0 01-1 1h-4.01a1 1 0 01-1-1v-2.95z" fill="#1D2959"/>
    <path fill-rule="evenodd" clip-rule="evenodd" d="M28.82 3.5a9.95 9.95 0 00-3.38-.8c-.88 0-2.08.38-3.17.82-.61.25-1.22.53-1.8.84-.7.38-1.56.13-1.94-.55a1.39 1.39 0 01.56-1.9 18.24 18.24 0 012.09-.98c1.14-.46 2.76-.9 4.2-.93 1.54-.03 3.27.41 4.5.89.76.3 1.5.63 2.23 1.01.7.37.95 1.22.58 1.9-.37.68-1.25.93-1.94.57a15.61 15.61 0 00-1.93-.87z" fill="#8A4A38"/>
    <path fill-rule="evenodd" clip-rule="evenodd" d="M19.27 1.73c-.64 0-1.16.51-1.16 1.15v.71c0 .53.43.97.97.97h.02V8.2h1.01V4.53h-.25a1.42 1.42 0 00-.27-2.8h-.32zM31.94 1.73c.64 0 1.16.51 1.16 1.15v.71c0 .53-.43.97-.96.97h-.03V8.2H31.1V4.53h.25a1.42 1.42 0 01.27-2.8h.32z" fill="#F6EF3E"/>
    <path d="M0 16.76a9 9 0 019-9h33.25a9 9 0 019 9v25.32H0V16.76z" fill="#8A4A38"/><ellipse cx="8.05" cy="33.25" rx="5.02" ry="4.91" fill="#EF9A9A"/>
    <ellipse rx="4.81" ry="9.26" transform="matrix(.7051 -.7091 .72546 .68826 39.48 33.42)" fill="#93C6EB"/>
    <path fill="#C2DEA3" d="M19.75 21.32L31.12 9.5l6.73 6.18L26.49 27.5z"/>
    <rect width="8.33" height="6.25" rx="1" transform="matrix(.73793 .67488 -.69199 .7219 10.58 13.26)" fill="#C49A6C"/>
    <path fill="#F57B20" d="M10.04 23.05h7.07v20h-7.07z"/>
    <path d="M10.04 6.47h7.07v17.3a3.53 3.53 0 01-7.07 0V6.46z" fill="#F6A725"/>
    <path fill="#F6EF3E" d="M9.06 21.48h9.03v1.96H9.06z"/>
    <path fill="#F57B20" d="M34.15 23.05h7.07v20h-7.07z"/>
    <path d="M34.15 6.47h7.07v17.3a3.53 3.53 0 01-7.07 0V6.46z" fill="#F6A725"/>
    <path fill="#F6EF3E" d="M33.17 21.48h9.03v1.96h-9.03z"/>
    <g class="logo-word" filter="url(#filter0_d_13528_938)">
      <path d="M198.54 22.69c.97-.6 1.46-1.54 1.46-2.8 0-1.64-.7-2.93-2.1-3.87a8.16 8.16 0 00-4.81-1.44 8.5 8.5 0 00-4.96 1.56 4.76 4.76 0 00-2.22 4.1c0 .64.2 1.17.61 1.6.4.4 1 .6 1.75.6.74 0 1.3-.2 1.7-.6.4-.43.6-.96.6-1.6a2.2 2.2 0 01.5-1.48c.37-.52 1.04-.78 2.02-.78.81.02 1.4.22 1.75.6.37.39.53.78.5 1.16 0 .27-.1.54-.3.8-.2.28-.4.49-.61.64-.2.15-.52.37-.97.65l-.93.6a3.36 3.36 0 00-1.52 2.88c0 .58.22 1.08.65 1.48.44.39 1.04.58 1.78.58.73 0 1.32-.2 1.75-.58.44-.4.67-.9.67-1.48 0-.26.05-.5.14-.71.1-.22.26-.42.47-.6l.58-.46c.18-.11.43-.27.76-.45.35-.18.6-.32.73-.4zM173.61 27.99l5.17-6.25a2.85 2.85 0 012.16-1.26c.9-.1 1.7.1 2.38.64.68.53 1 1.24.97 2.13v8.96c0 .56-.23 1.04-.69 1.44-.43.37-.96.56-1.59.56-.62 0-1.16-.19-1.61-.56-.44-.4-.66-.88-.66-1.44v-5.56l-5.16 6.25a2.85 2.85 0 01-2.16 1.26c-.9.1-1.7-.11-2.39-.64-.68-.53-1-1.25-.96-2.14v-8.92c0-.57.22-1.05.65-1.44.46-.4 1-.6 1.62-.6.63 0 1.16.2 1.59.6.45.4.68.87.68 1.44v5.53z"/>
      <path fill-rule="evenodd" clip-rule="evenodd" d="M150.38 32.12V22.4c0-.56-.24-1.04-.72-1.44-.45-.42-1-.63-1.63-.63-.61 0-1.15.2-1.6.63-.46.4-.7.88-.7 1.44v-.24a2.9 2.9 0 00-1.37-1.33 4.74 4.74 0 00-2.35-.58c-1.72 0-3.3.62-4.75 1.86a6.43 6.43 0 00-2.12 5.1c0 2.22.7 3.94 2.09 5.16a7.06 7.06 0 004.78 1.83 5.4 5.4 0 002.32-.47 3.68 3.68 0 001.47-1.18c.11.47.38.87.8 1.18.42.3.9.45 1.43.45.63 0 1.18-.2 1.63-.6.48-.4.72-.9.72-1.47zm-7.33-1.79a2.92 2.92 0 002.84-3c0-1.65-1.27-3-2.84-3a2.92 2.92 0 00-2.83 3c0 1.66 1.27 3 2.83 3z"/>
      <path d="M129.1 25.37v-2.8c0-.58.23-1.06.7-1.46a2.43 2.43 0 011.66-.62c.63 0 1.18.2 1.66.62.47.4.7.88.7 1.45v9.62c0 .57-.23 1.05-.7 1.45-.46.4-1 .6-1.66.6-.65 0-1.21-.2-1.68-.6-.46-.4-.68-.88-.68-1.45v-2.85h-5.12v2.85c0 .57-.23 1.05-.7 1.45-.46.4-1.01.6-1.66.6-.65 0-1.22-.2-1.69-.6-.45-.4-.68-.88-.68-1.45v-9.62c0-.57.24-1.05.71-1.45a2.43 2.43 0 011.66-.62c.63 0 1.18.2 1.65.62.48.4.71.88.71 1.45v2.81h5.12zM116.88 20.49c.46 0 .86.17 1.19.52.33.34.5 1.13.5 1.61 0 .48-.17.98-.5 1.32-.33.35-.73.47-1.2.47h-3.96v7.82c0 1.48-1.33 2-2.66 2-1.24 0-2.42-.66-2.42-1.99l.04-11.75h9zM88.6 14.58v17.46c0 .58-.32 1.07-.77 1.47-.42.4-1.09.6-1.7.6-.6 0-1.49-.2-1.93-.6-.43-.4-.64-.9-.64-1.47V18.52h-7.13v13.52a1.9 1.9 0 01-.67 1.47c-.42.4-1.29.6-1.9.6a3 3 0 01-1.85-.6c-.42-.4-.64-.9-.64-1.47V14.58H88.6zM104.39 32.09c-1.45 1.32-3.38 1.98-5.8 1.98-2.41 0-4.33-.66-5.76-1.98a6.56 6.56 0 01-2.2-5.04 6.5 6.5 0 012.2-5.04c1.43-1.32 3.35-1.99 5.76-1.99 2.42 0 4.35.67 5.8 1.99a6.6 6.6 0 012.16 5.04 6.6 6.6 0 01-2.16 5.04zm-3.76-7.12c-.4-.41-.9-.66-1.5-.74a2.98 2.98 0 00-2.96 1.16 2.48 2.48 0 00-.44 1.66c0 .83.27 1.52.8 2.07.55.54 1.24.8 2.06.8.85 0 1.54-.25 2.07-.77.53-.53.8-1.23.8-2.1 0-.83-.28-1.52-.83-2.08zM157.15 20.43l9.94.03v11.65c0 .58-.24 1.08-.72 1.5-.47.4-.9.6-1.6.6-.71 0-1.07.06-1.56-.34a2.73 2.73 0 01-.9-1.76v-7.79h-3.28c0 5.59 0 6.82-2.1 8.81a4.23 4.23 0 01-3 1.08c-.73 0-1.16-.17-1.63-.57a2.47 2.47 0 01-.83-1.7 3.5 3.5 0 011.02-2.74c2.1 0 2.01-.5 1.88-4.28v-2.4c.02-.58.13-2.1.13-2.1h2.65zM196.2 31.27c0 1.63-1.41 2.94-3.15 2.94-1.73 0-3.14-1.31-3.14-2.94 0-1.62 1.4-2.93 3.14-2.93 1.74 0 3.14 1.31 3.14 2.93z"/>
    </g>
    <defs>
      <filter id="filter0_d_13528_938" x="69.37" y="13.58" width="132.63" height="23.65" filterUnits="userSpaceOnUse" color-interpolation-filters="sRGB">
        <feFlood flood-opacity="0" result="BackgroundImageFix"/>
        <feColorMatrix in="SourceAlpha" values="0 0 0 0 0 0 0 0 0 0 0 0 0 0 0 0 0 0 127 0" result="hardAlpha"/>
        <feOffset dy="1"/>
        <feGaussianBlur stdDeviation="1"/>
        <feColorMatrix values="0 0 0 0 0 0 0 0 0 0 0 0 0 0 0 0 0 0 0.3 0"/>
        <feBlend in2="BackgroundImageFix" result="effect1_dropShadow_13528_938"/>
        <feBlend in="SourceGraphic" in2="effect1_dropShadow_13528_938" result="shape"/>
      </filter>
    </defs>
  </svg>
</svg>
