<svg width="17" height="16" fill="none" xmlns="http://www.w3.org/2000/svg"><path d="M12.95 14a3.1 3.1 0 01-1.67-.48 2.9 2.9 0 01-1.1-1.3 2.76 2.76 0 01.64-3.13 3.13 3.13 0 013.28-.62c.55.22 1.02.58 1.35 1.06a2.79 2.79 0 01-.38 3.63c-.56.54-1.32.84-2.12.84zm0-4.75c-.39 0-.77.11-1.09.32-.32.2-.57.5-.72.84a1.8 1.8 0 00.42 2.04 2.04 2.04 0 002.14.4c.36-.13.66-.38.88-.68a1.82 1.82 0 00-.25-2.37 2 2 0 00-1.38-.55zM4.32 14a3.1 3.1 0 01-1.67-.48 2.9 2.9 0 01-1.1-1.3A2.76 2.76 0 012.2 9.1a3.13 3.13 0 013.28-.62c.54.22 1.01.58 1.34 1.06a2.79 2.79 0 01-.37 3.63c-.57.54-1.33.84-2.13.84zm0-4.75c-.38 0-.76.11-1.09.32-.32.2-.57.5-.72.84a1.8 1.8 0 00.43 2.04 2.04 2.04 0 002.14.4c.35-.13.66-.38.87-.68a1.82 1.82 0 00-.24-2.37 2 2 0 00-1.39-.55zM10.73 4a1.08 1.08 0 00.74-.3 1 1 0 00.3-.7.95.95 0 00-.3-.71 1.03 1.03 0 00-.74-.29 1.09 1.09 0 00-.74.3 1 1 0 00-.3.7.96.96 0 00.3.7 1.05 1.05 0 00.74.3z" fill="#1D2E5B"/><path d="M12.28 6h-1.43c-.02 0-.05 0-.07-.02a.13.13 0 01-.04-.04L9.7 4.12a.98.98 0 00-.3-.34 1.04 1.04 0 00-1.31.1L5.8 6.08a1 1 0 00-.3.7c0 .54.41.73.6.84a105.18 105.18 0 012 1.14l.01.07v2.16c0 .26.22.5.5.5a.54.54 0 00.39-.13.5.5 0 00.16-.36V8.31a.48.48 0 00-.06-.23.5.5 0 00-.16-.17l-1.2-.84A.13.13 0 017.67 7a.12.12 0 01.03-.1l1.38-1.4a.13.13 0 01.1-.04c.03 0 .05 0 .06.02l.05.04.7 1.23c.05.08.12.15.2.2.08.04.17.06.27.06h1.83a.54.54 0 00.37-.15.5.5 0 00.15-.37c-.02-.27-.26-.48-.54-.48z" fill="#1D2E5B"/></svg>
