<svg width="17" height="16" fill="none" xmlns="http://www.w3.org/2000/svg"><path d="M4.46 10.86c0-.32-.14-.59-.41-.81a1.5 1.5 0 00-.99-.34c-.38 0-.71.12-.98.34-.27.22-.41.5-.41.8 0 .32.14.6.4.82.28.22.6.33 1 .33.38 0 .7-.11.98-.33.27-.23.4-.5.4-.81zm11.14 0c0-.32-.13-.59-.4-.81a1.5 1.5 0 00-1-.34c-.38 0-.7.12-.98.34-.27.22-.4.5-.4.8 0 .32.13.6.4.82.28.22.6.33.99.33.38 0 .71-.11.98-.33.28-.23.41-.5.41-.81zm-.5-3.54l-.78-3.43a.58.58 0 00-.25-.33.77.77 0 00-.44-.13h-10a.77.77 0 00-.43.13c-.13.08-.21.2-.25.33l-.78 3.43a.5.5 0 00.15.47c.14.14.32.21.54.21h11.56c.21 0 .4-.07.53-.2a.5.5 0 00.15-.48zm-2.46-5.46a.38.38 0 00-.15-.3.56.56 0 00-.37-.13H5.15a.56.56 0 00-.37.12.38.38 0 00-.15.3c0 .13.05.23.15.31.1.08.23.13.37.13h6.97c.14 0 .27-.05.37-.13.1-.08.15-.18.15-.3zM17 8.33v5.38h-1.4v1.15c0 .31-.13.58-.4.8-.28.23-.6.34-1 .34a1.5 1.5 0 01-.98-.33c-.27-.23-.4-.5-.4-.81V13.7H4.46v1.15c0 .31-.14.58-.41.8-.27.23-.6.34-.99.34a1.5 1.5 0 01-.98-.33c-.27-.23-.41-.5-.41-.81V13.7H.27V8.33c0-.67.1-1.33.28-2L1.67 2.3c.06-.47.42-.88 1.06-1.23a8.18 8.18 0 012.5-.8C6.26.1 7.4 0 8.63 0c1.25 0 2.38.09 3.4.27 1.03.18 1.87.44 2.51.8.64.34 1 .75 1.06 1.22l1.15 4.05c.16.6.25 1.27.25 1.99z" fill="#1D2E5B"/></svg>