<svg width="12" height="12" fill="none" xmlns="http://www.w3.org/2000/svg"><path fill-rule="evenodd" clip-rule="evenodd" d="M6 4.66l.67-1.4c.17-.35.46-.86.86-1.26.4-.4.89-.67 1.47-.67a2.28 2.28 0 012.25 2.3c0 .95-.42 1.63-1.4 2.65-.25.27-.54.55-.86.86-.83.82-1.87 1.84-2.99 3.2a40.57 40.57 0 00-2.99-3.2l-.86-.86C1.17 5.26.75 4.58.75 3.63c0-1.26 1-2.3 2.25-2.3.58 0 1.06.27 1.47.67.4.4.7.9.86 1.26L6 4.66zm.3 6.54a.39.39 0 01-.3.14.37.37 0 01-.3-.14 37.64 37.64 0 00-3.18-3.45C.98 6.22 0 5.25 0 3.63 0 1.93 1.34.54 3 .54c1.2 0 2.04.83 2.55 1.58.2.29.35.57.45.78.13-.27.28-.53.45-.78C6.96 1.37 7.8.54 9 .54c1.66 0 3 1.38 3 3.09 0 1.63-.97 2.59-2.52 4.12-.9.88-1.99 1.95-3.19 3.45z" fill="#192144"/></svg>