<svg width="27" height="34" fill="none" xmlns="http://www.w3.org/2000/svg"><path d="M13.64.1L13.5.1 0 1.46v24.1l13.5 7.83L27 25.57V1.47L13.64.1zm11.6 24.49l-11.74 6.8-11.73-6.8V14.7l11.68 6.77.02 1.23-8.02-4.65v1.2l8.04 4.71.02 1.27-8.05-4.66v1.2l8.04 4.7 8.12-4.73v-5.1l3.62-2.1v10.04zm0-11.33L22 15.1l-1.48.86-7.06-4.1-.01 1.2 6.04 3.5-.06.03-.13.07-.86.49-4.98-2.9-.01 1.2 3.93 2.29-.93.6h-.02l-2.97-1.7-.01 1.2 1.94 1.11-1.98 1.17L1.8 13.38l11.63-6.81 11.8 6.7zm0-1.2L13.43 5.3 1.77 12.06V3l11.73-1.2 11.73 1.2v9.05z" fill="#192144"/></svg>