<svg width="18" height="18" fill="none" xmlns="http://www.w3.org/2000/svg"><g clip-path="url(#clip0_17368_2556)" fill="#192144"><path d="M12.96 2.03c.86 0 1.68.34 2.29.94.6.6.95 1.4.95 2.25v7.8c0 .84-.34 1.65-.95 2.24-.6.6-1.43.94-2.29.94H5.04c-.86 0-1.68-.34-2.28-.94-.61-.6-.95-1.4-.95-2.25V5.22c0-.84.34-1.65.95-2.25.6-.6 1.42-.93 2.28-.94h7.92zm0-1.06H5.04c-1.15 0-2.24.45-3.05 1.25a4.22 4.22 0 00-1.27 3v7.8c0 1.12.46 2.2 1.27 3 .8.8 1.9 1.24 3.05 1.24h7.92c1.15 0 2.24-.45 3.05-1.24a4.22 4.22 0 001.27-3v-7.8c0-1.13-.46-2.2-1.27-3A4.36 4.36 0 0012.96.97z"/><path d="M9 5.99a3.23 3.23 0 012.95 1.93 3.1 3.1 0 01-.69 3.42 3.2 3.2 0 01-5.44-2.22 3.09 3.09 0 01.93-2.22A3.19 3.19 0 019 6zm0-1.07a4.32 4.32 0 00-3.94 2.6 4.14 4.14 0 00.92 4.57 4.3 4.3 0 007.29-2.97 4.13 4.13 0 00-1.25-2.97 4.27 4.27 0 00-3.01-1.23zM13.43 5.73c.53 0 .96-.42.96-.95a.96.96 0 00-.96-.95.96.96 0 00-.97.95c0 .53.44.95.97.95z"/></g><defs><clipPath id="clip0_17368_2556"><path fill="#fff" transform="translate(0 .26)" d="M0 0h18v17.71H0z"/></clipPath></defs></svg>