<svg width="202" height="50" fill="none" xmlns="http://www.w3.org/2000/svg"><path d="M94 12.64L53.9 50 39.26 2.1 94 12.65z" fill="#FF8D30"/><ellipse cx="94.73" cy="33.9" rx="4.35" ry="4.25" fill="#88BFEB"/><ellipse cx="111.87" cy="21.53" rx="15.17" ry="14.82" fill="#EB9898"/><path fill="#72A73E" d="M102.94 23.3l52.8-19.08 9.94 26.26-52.8 19.08z"/><ellipse cx="110.04" cy="40.64" rx="2.55" ry="2.49" fill="#FFBD30"/><ellipse rx="22.78" ry="9.04" transform="matrix(.97092 .2394 -.25022 .96819 159.1 33.4)" fill="#8EC7F5"/><ellipse cx="176.37" cy="12.21" rx="2.59" ry="2.53" fill="#FFBD30"/><ellipse cx="184.46" cy="9.2" rx="2.59" ry="2.53" fill="#FFBD30"/><path d="M4.03 42.08h6v2.95a1 1 0 01-1 1h-4a1 1 0 01-1-1v-2.95zM41.2 42.08h6.02v2.95a1 1 0 01-1 1h-4.01a1 1 0 01-1-1v-2.95z" fill="#1D2959"/><path fill-rule="evenodd" clip-rule="evenodd" d="M28.82 3.5a9.95 9.95 0 00-3.38-.8c-.88 0-2.08.38-3.17.82-.61.25-1.22.53-1.8.84-.7.38-1.56.13-1.94-.55a1.39 1.39 0 01.56-1.9 18.24 18.24 0 012.09-.98c1.14-.46 2.76-.9 4.2-.93 1.54-.03 3.27.41 4.5.89.76.3 1.5.63 2.23 1.01.7.37.95 1.22.58 1.9-.37.68-1.25.93-1.94.57a15.61 15.61 0 00-1.93-.87z" fill="#8A4A38"/><path fill-rule="evenodd" clip-rule="evenodd" d="M19.27 1.73c-.64 0-1.16.51-1.16 1.15v.71c0 .53.43.97.97.97h.02V8.2h1.01V4.53h-.25a1.42 1.42 0 00-.27-2.8h-.32zM31.94 1.73c.64 0 1.16.51 1.16 1.15v.71c0 .53-.43.97-.96.97h-.03V8.2H31.1V4.53h.25a1.42 1.42 0 01.27-2.8h.32z" fill="#F6EF3E"/><path d="M0 16.76a9 9 0 019-9h33.25a9 9 0 019 9v25.32H0V16.76z" fill="#8A4A38"/><ellipse cx="8.05" cy="33.25" rx="5.02" ry="4.91" fill="#EF9A9A"/><ellipse rx="4.81" ry="9.26" transform="matrix(.7051 -.7091 .72546 .68826 39.48 33.42)" fill="#93C6EB"/><path fill="#C2DEA3" d="M19.75 21.32L31.12 9.5l6.73 6.18L26.49 27.5z"/><rect width="8.33" height="6.25" rx="1" transform="matrix(.73793 .67488 -.69199 .7219 10.58 13.26)" fill="#C49A6C"/><path fill="#F57B20" d="M10.04 23.05h7.07v20h-7.07z"/><path d="M10.04 6.47h7.07v17.3a3.53 3.53 0 01-7.07 0V6.46z" fill="#F6A725"/><path fill="#F6EF3E" d="M9.06 21.48h9.03v1.96H9.06z"/><path fill="#F57B20" d="M34.15 23.05h7.07v20h-7.07z"/><path d="M34.15 6.47h7.07v17.3a3.53 3.53 0 01-7.07 0V6.46z" fill="#F6A725"/><path fill="#F6EF3E" d="M33.17 21.48h9.03v1.96h-9.03z"/><g filter="url(#filter0_d_13528_938)" fill="#fff"><path d="M198.54 22.69c.97-.6 1.46-1.54 1.46-2.8 0-1.64-.7-2.93-2.1-3.87a8.16 8.16 0 00-4.81-1.44 8.5 8.5 0 00-4.96 1.56 4.76 4.76 0 00-2.22 4.1c0 .64.2 1.17.61 1.6.4.4 1 .6 1.75.6.74 0 1.3-.2 1.7-.6.4-.43.6-.96.6-1.6a2.2 2.2 0 01.5-1.48c.37-.52 1.04-.78 2.02-.78.81.02 1.4.22 1.75.6.37.39.53.78.5 1.16 0 .27-.1.54-.3.8-.2.28-.4.49-.61.64-.2.15-.52.37-.97.65l-.93.6a3.36 3.36 0 00-1.52 2.88c0 .58.22 1.08.65 1.48.44.39 1.04.58 1.78.58.73 0 1.32-.2 1.75-.58.44-.4.67-.9.67-1.48 0-.26.05-.5.14-.71.1-.22.26-.42.47-.6l.58-.46c.18-.11.43-.27.76-.45.35-.18.6-.32.73-.4zM173.61 27.99l5.17-6.25a2.85 2.85 0 012.16-1.26c.9-.1 1.7.1 2.38.64.68.53 1 1.24.97 2.13v8.96c0 .56-.23 1.04-.69 1.44-.43.37-.96.56-1.59.56-.62 0-1.16-.19-1.61-.56-.44-.4-.66-.88-.66-1.44v-5.56l-5.16 6.25a2.85 2.85 0 01-2.16 1.26c-.9.1-1.7-.11-2.39-.64-.68-.53-1-1.25-.96-2.14v-8.92c0-.57.22-1.05.65-1.44.46-.4 1-.6 1.62-.6.63 0 1.16.2 1.59.6.45.4.68.87.68 1.44v5.53z"/><path fill-rule="evenodd" clip-rule="evenodd" d="M150.38 32.12V22.4c0-.56-.24-1.04-.72-1.44-.45-.42-1-.63-1.63-.63-.61 0-1.15.2-1.6.63-.46.4-.7.88-.7 1.44v-.24a2.9 2.9 0 00-1.37-1.33 4.74 4.74 0 00-2.35-.58c-1.72 0-3.3.62-4.75 1.86a6.43 6.43 0 00-2.12 5.1c0 2.22.7 3.94 2.09 5.16a7.06 7.06 0 004.78 1.83 5.4 5.4 0 002.32-.47 3.68 3.68 0 001.47-1.18c.11.47.38.87.8 1.18.42.3.9.45 1.43.45.63 0 1.18-.2 1.63-.6.48-.4.72-.9.72-1.47zm-7.33-1.79a2.92 2.92 0 002.84-3c0-1.65-1.27-3-2.84-3a2.92 2.92 0 00-2.83 3c0 1.66 1.27 3 2.83 3z"/><path d="M129.1 25.37v-2.8c0-.58.23-1.06.7-1.46a2.43 2.43 0 011.66-.62c.63 0 1.18.2 1.66.62.47.4.7.88.7 1.45v9.62c0 .57-.23 1.05-.7 1.45-.46.4-1 .6-1.66.6-.65 0-1.21-.2-1.68-.6-.46-.4-.68-.88-.68-1.45v-2.85h-5.12v2.85c0 .57-.23 1.05-.7 1.45-.46.4-1.01.6-1.66.6-.65 0-1.22-.2-1.69-.6-.45-.4-.68-.88-.68-1.45v-9.62c0-.57.24-1.05.71-1.45a2.43 2.43 0 011.66-.62c.63 0 1.18.2 1.65.62.48.4.71.88.71 1.45v2.81h5.12zM116.88 20.49c.46 0 .86.17 1.19.52.33.34.5 1.13.5 1.61 0 .48-.17.98-.5 1.32-.33.35-.73.47-1.2.47h-3.96v7.82c0 1.48-1.33 2-2.66 2-1.24 0-2.42-.66-2.42-1.99l.04-11.75h9zM88.6 14.58v17.46c0 .58-.32 1.07-.77 1.47-.42.4-1.09.6-1.7.6-.6 0-1.49-.2-1.93-.6-.43-.4-.64-.9-.64-1.47V18.52h-7.13v13.52a1.9 1.9 0 01-.67 1.47c-.42.4-1.29.6-1.9.6a3 3 0 01-1.85-.6c-.42-.4-.64-.9-.64-1.47V14.58H88.6zM104.39 32.09c-1.45 1.32-3.38 1.98-5.8 1.98-2.41 0-4.33-.66-5.76-1.98a6.56 6.56 0 01-2.2-5.04 6.5 6.5 0 012.2-5.04c1.43-1.32 3.35-1.99 5.76-1.99 2.42 0 4.35.67 5.8 1.99a6.6 6.6 0 012.16 5.04 6.6 6.6 0 01-2.16 5.04zm-3.76-7.12c-.4-.41-.9-.66-1.5-.74a2.98 2.98 0 00-2.96 1.16 2.48 2.48 0 00-.44 1.66c0 .83.27 1.52.8 2.07.55.54 1.24.8 2.06.8.85 0 1.54-.25 2.07-.77.53-.53.8-1.23.8-2.1 0-.83-.28-1.52-.83-2.08zM157.15 20.43l9.94.03v11.65c0 .58-.24 1.08-.72 1.5-.47.4-.9.6-1.6.6-.71 0-1.07.06-1.56-.34a2.73 2.73 0 01-.9-1.76v-7.79h-3.28c0 5.59 0 6.82-2.1 8.81a4.23 4.23 0 01-3 1.08c-.73 0-1.16-.17-1.63-.57a2.47 2.47 0 01-.83-1.7 3.5 3.5 0 011.02-2.74c2.1 0 2.01-.5 1.88-4.28v-2.4c.02-.58.13-2.1.13-2.1h2.65zM196.2 31.27c0 1.63-1.41 2.94-3.15 2.94-1.73 0-3.14-1.31-3.14-2.94 0-1.62 1.4-2.93 3.14-2.93 1.74 0 3.14 1.31 3.14 2.93z"/></g><defs><filter id="filter0_d_13528_938" x="69.37" y="13.58" width="132.63" height="23.65" filterUnits="userSpaceOnUse" color-interpolation-filters="sRGB"><feFlood flood-opacity="0" result="BackgroundImageFix"/><feColorMatrix in="SourceAlpha" values="0 0 0 0 0 0 0 0 0 0 0 0 0 0 0 0 0 0 127 0" result="hardAlpha"/><feOffset dy="1"/><feGaussianBlur stdDeviation="1"/><feColorMatrix values="0 0 0 0 0 0 0 0 0 0 0 0 0 0 0 0 0 0 0.3 0"/><feBlend in2="BackgroundImageFix" result="effect1_dropShadow_13528_938"/><feBlend in="SourceGraphic" in2="effect1_dropShadow_13528_938" result="shape"/></filter></defs></svg>