<svg width="168" height="42" fill="none" xmlns="http://www.w3.org/2000/svg"><path d="M78.02 10.62L44.74 42 32.59 1.77l45.43 8.85z" fill="#FF8D30"/><ellipse cx="78.62" cy="28.47" rx="3.61" ry="3.57" fill="#88BFEB"/><ellipse cx="92.85" cy="18.09" rx="12.59" ry="12.45" fill="#EB9898"/><path fill="#72A73E" d="M85.44 19.57l43.82-16.03 8.26 22.06L93.7 41.63z"/><ellipse cx="91.33" cy="34.14" rx="2.12" ry="2.09" fill="#FFBD30"/><ellipse rx="18.92" ry="7.59" transform="matrix(.97025 .24212 -.24742 .9689 132.05 28.05)" fill="#8EC7F5"/><ellipse cx="146.38" cy="10.26" rx="2.15" ry="2.13" fill="#FFBD30"/><ellipse cx="153.1" cy="7.73" rx="2.15" ry="2.13" fill="#FFBD30"/><path d="M3.34 35.35h5v2.32a1 1 0 01-1 1h-3a1 1 0 01-1-1v-2.32zM34.2 35.35h5v2.32a1 1 0 01-1 1h-3a1 1 0 01-1-1v-2.32z" fill="#1D2959"/><path fill-rule="evenodd" clip-rule="evenodd" d="M23.92 2.94a8.18 8.18 0 00-2.8-.68 8.2 8.2 0 00-2.64.7c-.5.21-1 .44-1.49.7-.58.32-1.3.11-1.61-.46-.32-.57-.11-1.28.46-1.6a15 15 0 011.74-.82C18.53.4 19.87.02 21.07 0c1.27-.02 2.7.35 3.72.75.64.25 1.26.52 1.86.85.58.3.8 1.02.48 1.6a1.2 1.2 0 01-1.6.47 13 13 0 00-1.6-.73z" fill="#8A4A38"/><path fill-rule="evenodd" clip-rule="evenodd" d="M16 1.45a.96.96 0 00-.97.96v.62c0 .44.36.8.8.8h.02v3.06h.84V3.81h-.21a1.19 1.19 0 00-.23-2.36h-.26zM26.51 1.45c.53 0 .96.43.96.96v.62a.8.8 0 01-.8.8h-.02v3.06h-.84V3.81h.22a1.19 1.19 0 01.23-2.36h.25z" fill="#F6EF3E"/><path d="M0 15.52a9 9 0 019-9h24.54a9 9 0 019 9v19.83H0V15.52z" fill="#8A4A38"/><ellipse cx="6.68" cy="27.93" rx="4.17" ry="4.12" fill="#EF9A9A"/><ellipse rx="4.02" ry="7.73" transform="matrix(.70085 -.71331 .72133 .69259 32.77 28.07)" fill="#93C6EB"/><path fill="#C2DEA3" d="M16.4 17.9l9.43-9.92 5.59 5.2-9.43 9.92z"/><rect width="6.96" height="5.22" rx="1" transform="matrix(.7339 .67927 -.68766 .72603 8.79 11.14)" fill="#C49A6C"/><path fill="#F57B20" d="M8.33 19.36h5.87v16.8H8.33z"/><path d="M8.33 5.43h5.87v14.55a2.93 2.93 0 01-5.87 0V5.43z" fill="#F6A725"/><path fill="#F6EF3E" d="M7.52 18.04h7.5v1.65h-7.5z"/><path fill="#F57B20" d="M28.35 19.36h5.87v16.8h-5.87z"/><path d="M28.35 5.43h5.86v14.55a2.93 2.93 0 01-5.86 0V5.43z" fill="#F6A725"/><path fill="#F6EF3E" d="M27.53 18.04h7.5v1.65h-7.5z"/><g filter="url(#filter0_d_17237_1793)" fill="#fff"><path d="M164.79 19.06c.8-.51 1.21-1.3 1.21-2.35 0-1.38-.58-2.47-1.74-3.26a6.72 6.72 0 00-4-1.2 7 7 0 00-4.11 1.3c-1.23.87-1.85 2.02-1.85 3.46 0 .53.17.98.51 1.33.34.34.83.5 1.46.5.6 0 1.08-.16 1.4-.5.34-.35.5-.8.5-1.33-.02-.41.11-.83.42-1.25.3-.44.86-.66 1.67-.66.68.02 1.16.19 1.45.51.31.32.45.65.42.97 0 .23-.09.45-.25.68-.16.23-.33.4-.5.53-.17.13-.43.3-.8.55l-.78.5a2.83 2.83 0 00-1.26 2.42c0 .49.18.9.53 1.24.38.33.87.49 1.48.49s1.1-.16 1.45-.49c.38-.33.56-.75.56-1.24 0-.22.04-.41.12-.6.08-.18.21-.35.39-.5l.48-.38c.15-.1.36-.23.63-.38.3-.16.5-.27.6-.34zM144.1 23.5l4.29-5.24a2.36 2.36 0 011.79-1.06 2.6 2.6 0 011.98.54c.56.45.83 1.04.8 1.8v7.51c0 .48-.19.88-.57 1.21-.36.32-.8.48-1.32.48-.51 0-.96-.16-1.34-.48a1.58 1.58 0 01-.54-1.2v-4.67l-4.3 5.25c-.43.63-1.03.98-1.78 1.05a2.6 2.6 0 01-1.98-.54 2.05 2.05 0 01-.8-1.79v-7.5c0-.47.18-.87.54-1.2.38-.34.82-.5 1.34-.5.52 0 .96.16 1.32.5.38.33.57.73.57 1.2v4.65z"/><path fill-rule="evenodd" clip-rule="evenodd" d="M124.82 26.98v-8.16c0-.47-.2-.87-.6-1.2a1.93 1.93 0 00-1.35-.54c-.51 0-.95.18-1.34.53-.38.34-.57.74-.57 1.21v-.2a2.42 2.42 0 00-1.14-1.12 3.9 3.9 0 00-1.95-.48c-1.43 0-2.74.52-3.95 1.56a5.43 5.43 0 00-1.76 4.29c0 1.86.58 3.3 1.74 4.33a5.82 5.82 0 003.97 1.54c.73 0 1.37-.13 1.93-.4.55-.28.96-.6 1.21-.99.1.4.32.73.67 1a2 2 0 001.19.37c.52 0 .97-.17 1.35-.51.4-.34.6-.75.6-1.23zm-6.09-1.5c1.3 0 2.36-1.13 2.36-2.52 0-1.4-1.06-2.52-2.36-2.52-1.3 0-2.35 1.13-2.35 2.52 0 1.4 1.05 2.52 2.35 2.52z"/><path d="M107.15 21.31v-2.36c0-.48.2-.88.59-1.22a2 2 0 011.37-.52 2 2 0 011.38.52c.39.34.59.74.59 1.22v8.08c0 .48-.2.89-.6 1.22a2 2 0 01-1.37.5c-.54 0-1-.17-1.4-.5a1.57 1.57 0 01-.56-1.22v-2.4h-4.25v2.4c0 .48-.2.89-.58 1.22a2 2 0 01-1.38.5c-.54 0-1-.17-1.4-.5a1.57 1.57 0 01-.56-1.22v-8.08c0-.48.2-.88.59-1.22a2 2 0 011.37-.52 2 2 0 011.38.52c.39.34.59.74.59 1.22v2.36h4.24zM97 17.21c.4 0 .72.15 1 .43.27.3.41.96.41 1.36 0 .4-.14.82-.41 1.11-.28.3-.6.4-1 .4h-3.28v6.56c0 1.25-1.1 1.68-2.21 1.68-1.03 0-2.01-.55-2.01-1.67l.03-9.87h7.48zM73.54 12.25v14.67c0 .48-.27.89-.64 1.23-.35.33-.9.5-1.41.5-.5 0-1.24-.17-1.6-.5a1.64 1.64 0 01-.53-1.23V15.56h-5.92v11.36c0 .48-.19.89-.56 1.23-.35.33-1.07.5-1.57.5s-1.17-.17-1.54-.5a1.64 1.64 0 01-.53-1.23V12.25h14.3zM86.64 26.95a6.78 6.78 0 01-4.8 1.67c-2.01 0-3.6-.56-4.79-1.67a5.54 5.54 0 01-1.82-4.23c0-1.7.6-3.12 1.82-4.23 1.18-1.11 2.78-1.67 4.78-1.67 2.01 0 3.61.56 4.81 1.67a5.58 5.58 0 011.8 4.23c0 1.7-.6 3.1-1.8 4.23zm-3.12-5.97a2.05 2.05 0 00-1.24-.63 2.57 2.57 0 00-1.37.13c-.42.17-.78.45-1.08.85-.29.4-.4.86-.37 1.39 0 .7.22 1.28.66 1.74.45.45 1.03.68 1.71.68.7 0 1.28-.22 1.72-.65.44-.45.66-1.04.66-1.77 0-.7-.23-1.28-.69-1.74zM130.44 17.16l8.25.03v9.79c0 .48-.2.9-.6 1.26-.4.33-.74.5-1.33.5-.59 0-.89.04-1.3-.3a2.3 2.3 0 01-.74-1.46v-6.55H132c0 4.7 0 5.72-1.75 7.4-.64.6-1.47.9-2.48.9-.6 0-.96-.14-1.35-.47a2.08 2.08 0 01-.69-1.44c0-1.12.24-1.56.85-2.3 1.74 0 1.67-.41 1.56-3.59v-2.01c.01-.49.1-1.76.1-1.76h2.2zM162.84 26.27a2.54 2.54 0 01-2.6 2.47c-1.45 0-2.61-1.1-2.61-2.47a2.54 2.54 0 012.6-2.47c1.44 0 2.61 1.1 2.61 2.47z"/></g><defs><filter id="filter0_d_17237_1793" x="57.24" y="11.25" width="110.76" height="20.5" filterUnits="userSpaceOnUse" color-interpolation-filters="sRGB"><feFlood flood-opacity="0" result="BackgroundImageFix"/><feColorMatrix in="SourceAlpha" values="0 0 0 0 0 0 0 0 0 0 0 0 0 0 0 0 0 0 127 0" result="hardAlpha"/><feOffset dy="1"/><feGaussianBlur stdDeviation="1"/><feColorMatrix values="0 0 0 0 0 0 0 0 0 0 0 0 0 0 0 0 0 0 0.3 0"/><feBlend in2="BackgroundImageFix" result="effect1_dropShadow_17237_1793"/><feBlend in="SourceGraphic" in2="effect1_dropShadow_17237_1793" result="shape"/></filter></defs></svg>