<svg width="96" height="15" fill="none" xmlns="http://www.w3.org/2000/svg"><path d="M94.91 6.19C95.64 5.73 96 5.02 96 4.06a3.4 3.4 0 00-1.57-2.96 6 6 0 00-3.6-1.1c-1.34 0-2.57.4-3.7 1.2a3.66 3.66 0 00-1.65 3.12c0 .5.16.9.46 1.22.3.3.74.46 1.3.46s.98-.16 1.27-.46c.3-.33.46-.73.46-1.22-.03-.37.1-.75.37-1.13.27-.4.77-.6 1.5-.6.6.02 1.04.17 1.3.47.28.3.4.59.38.88 0 .2-.08.41-.22.62-.15.2-.3.36-.46.48-.14.11-.38.28-.72.5l-.7.46a2.58 2.58 0 00-1.13 2.19c0 .45.16.82.48 1.13.34.3.78.44 1.33.44s.99-.14 1.3-.44c.34-.3.5-.68.5-1.13a1.32 1.32 0 01.46-1l.44-.35c.13-.09.32-.2.57-.34l.54-.31zM76.3 10.24l3.86-4.78c.4-.57.93-.9 1.61-.96.68-.08 1.27.09 1.78.5.51.4.75.94.72 1.62v6.84c0 .43-.17.8-.5 1.1-.33.28-.73.43-1.2.43a1.8 1.8 0 01-1.2-.43c-.33-.3-.49-.67-.49-1.1V9.2L77.03 14c-.4.57-.94.9-1.61.96a2.32 2.32 0 01-1.78-.5c-.51-.4-.75-.94-.72-1.62V6c0-.43.16-.8.48-1.1.34-.3.74-.45 1.21-.45s.86.15 1.19.45c.34.3.5.67.5 1.1v4.23z" fill="#fff"/><path fill-rule="evenodd" clip-rule="evenodd" d="M58.97 13.39V5.98c0-.43-.18-.8-.54-1.1a1.73 1.73 0 00-1.22-.48c-.45 0-.85.16-1.2.48-.34.3-.5.67-.5 1.1V5.8c-.18-.4-.52-.74-1.03-1.02-.52-.3-1.1-.44-1.76-.44-1.28 0-2.47.47-3.55 1.42a4.97 4.97 0 00-1.58 3.9c0 1.68.52 3 1.56 3.93a5.2 5.2 0 003.57 1.4c.66 0 1.23-.12 1.73-.36.5-.26.87-.56 1.1-.9.08.36.28.66.6.9.3.22.66.34 1.06.34.47 0 .88-.16 1.22-.46.36-.3.54-.68.54-1.12zm-5.47-1.36c1.17 0 2.11-1.03 2.11-2.3 0-1.26-.94-2.29-2.11-2.29s-2.12 1.03-2.12 2.3c0 1.26.95 2.29 2.12 2.29z" fill="#fff"/><path d="M43.08 8.24V6.09c0-.43.18-.8.53-1.1a1.8 1.8 0 011.24-.48c.47 0 .88.16 1.23.48.36.3.53.67.53 1.1v7.35c0 .43-.17.8-.53 1.1-.34.3-.75.46-1.23.46-.49 0-.9-.15-1.26-.46-.34-.3-.5-.67-.5-1.1v-2.18h-3.83v2.18c0 .43-.17.8-.53 1.1-.33.3-.75.46-1.23.46-.49 0-.9-.15-1.26-.46-.34-.3-.5-.67-.5-1.1V6.09c0-.43.17-.8.52-1.1a1.8 1.8 0 011.24-.48c.47 0 .88.16 1.23.48.36.3.53.67.53 1.1v2.15h3.82zM33.96 4.51c.35 0 .64.13.9.4.24.26.36.86.36 1.23s-.12.75-.37 1c-.25.27-.54.36-.89.36H31v5.97c0 1.13-.99 1.53-1.99 1.53-.92 0-1.8-.5-1.8-1.52l.03-8.97h6.72zM12.86 0v13.33c0 .44-.24.81-.57 1.12-.32.3-.82.46-1.28.46-.45 0-1.1-.15-1.44-.46a1.5 1.5 0 01-.47-1.12V3.01H3.77v10.32c0 .44-.16.81-.5 1.12-.31.3-.96.46-1.41.46a2.2 2.2 0 01-1.38-.46A1.5 1.5 0 010 13.33V0h12.86zM24.64 13.37a6.06 6.06 0 01-4.32 1.51c-1.8 0-3.24-.5-4.3-1.52a5.06 5.06 0 01-1.64-3.84c0-1.56.54-2.84 1.64-3.85a5.97 5.97 0 014.3-1.51c1.8 0 3.24.5 4.32 1.51a5.1 5.1 0 011.61 3.85 5.1 5.1 0 01-1.61 3.85zm-2.8-5.44c-.3-.31-.68-.5-1.12-.56a2.29 2.29 0 00-1.24.11c-.38.15-.7.4-.97.77-.25.36-.36.79-.33 1.27 0 .63.2 1.16.6 1.58.4.4.92.61 1.54.61.63 0 1.14-.2 1.54-.59.4-.4.6-.94.6-1.6 0-.64-.21-1.16-.62-1.59zM64.02 4.46l7.42.03v8.9c0 .44-.18.82-.54 1.14-.35.3-.66.46-1.2.46-.52 0-.8.04-1.16-.27a2.1 2.1 0 01-.66-1.33V7.44h-2.46c0 4.26 0 5.2-1.57 6.72-.58.55-1.33.83-2.24.83-.54 0-.86-.13-1.21-.44a1.9 1.9 0 01-.62-1.3c0-1.02.22-1.43.76-2.09 1.57 0 1.5-.38 1.4-3.27V6.06l.1-1.6h1.98zM93.16 12.75a2.3 2.3 0 01-2.34 2.24c-1.3 0-2.35-1-2.35-2.24a2.3 2.3 0 012.35-2.25c1.29 0 2.34 1 2.34 2.25z" fill="#fff"/></svg>