<svg width="17" height="15" fill="none" xmlns="http://www.w3.org/2000/svg"><path fill-rule="evenodd" clip-rule="evenodd" d="M8.5.09C5.7.09 2.9.56 1.88 1.5 1.04 2.28.76 3.66.66 4.54l-.01.12c0 .34.3.62.65.62l2.57-.2h.07c.35-.02.64-.29.64-.63V3.24c0-.38.32-.68.72-.68h6.4c.4 0 .72.3.72.68v1.21c0 .34.29.61.64.62l.07.01 2.57.2c.36 0 .65-.28.65-.62l-.01-.12c-.1-.88-.38-2.26-1.22-3.04C14.1.56 11.3.1 8.5.1zm0 8.03c-.72 0-1.3.55-1.3 1.23 0 .69.58 1.24 1.3 1.24.72 0 1.3-.55 1.3-1.24 0-.68-.58-1.23-1.3-1.23zm-.98-2.78v-.77a.8.8 0 00-.82-.78.8.8 0 00-.82.78v.77l-4.4 4.45c-.31.28-.5.67-.5 1.1v1.24c0 .69.58 1.24 1.3 1.24h.33v.77c0 .43.37.77.82.77a.8.8 0 00.82-.77v-.77h8.5v.77c0 .43.37.77.82.77a.8.8 0 00.82-.77v-.77h.32c.73 0 1.31-.55 1.31-1.24V10.9c0-.43-.19-.82-.5-1.1l-4.4-4.45v-.77c0-.43-.37-.78-.82-.78a.8.8 0 00-.82.78v.77H7.52zm.98 1.54c1.45 0 2.62 1.1 2.62 2.47a2.55 2.55 0 01-2.62 2.47 2.55 2.55 0 01-2.62-2.47A2.55 2.55 0 018.5 6.88z" fill="#FFD74B"/></svg>