<svg width="9" height="19" viewBox="0 0 9 19" fill="none" xmlns="http://www.w3.org/2000/svg">
<path d="M8.8116 0.400608C8.71296 0.288944 8.59577 0.200351 8.46676 0.139903C8.33775 0.0794548 8.19945 0.0483398 8.05977 0.0483398C7.92009 0.0483398 7.78179 0.0794548 7.65278 0.139903C7.52377 0.200351 7.40659 0.288944 7.30795 0.400608L0.248437 8.37194C0.169684 8.46069 0.107204 8.5661 0.0645734 8.68214C0.0219433 8.79818 0 8.92258 0 9.04821C0 9.17384 0.0219433 9.29824 0.0645734 9.41428C0.107204 9.53033 0.169684 9.63574 0.248437 9.72448L7.30795 17.6958C7.72421 18.1658 8.39533 18.1658 8.8116 17.6958C9.22786 17.2258 8.88303 16.7322 8.46676 16.2622L4.74854 12.0836L2.12914 9.01725L8.8207 1.30298C8.8207 1.30298 9.22786 0.861046 8.8116 0.400608Z" fill="black"/>
</svg>
