<svg width="12" height="9" viewBox="0 0 12 9" fill="none" xmlns="http://www.w3.org/2000/svg">
<path d="M0.638485 1.09805C0.569006 1.17667 0.513881 1.27007 0.476269 1.37289C0.438657 1.47571 0.419296 1.58595 0.419296 1.69727C0.419296 1.8086 0.438657 1.91883 0.476269 2.02165C0.513881 2.12448 0.569006 2.21787 0.638485 2.29649L5.59843 7.92308C5.65365 7.98585 5.71924 8.03565 5.79144 8.06963C5.86364 8.1036 5.94105 8.12109 6.01922 8.12109C6.09739 8.12109 6.17479 8.1036 6.247 8.06963C6.3192 8.03565 6.38479 7.98585 6.44001 7.92308L11.4 2.29649C11.6924 1.96472 11.6924 1.42982 11.4 1.09805C11.1075 0.766277 10.8004 1.04112 10.5079 1.37289L7.90792 4.3364L5.99995 6.42412L1.19996 1.09079C1.19996 1.09079 0.92498 0.766277 0.638485 1.09805Z" fill="black" fill-opacity="0.3"/>
</svg>
