<svg width="23" height="12" fill="none" xmlns="http://www.w3.org/2000/svg"><path d="M17.77 11.85a3.02 3.02 0 01-1.55-.46c-.48-.32-.92-.7-1.32-1.13-.32-.32-.87-.87-1.07-.87-.21 0-.36.68-.35 1.16 0 .33-.12.65-.35.9-.26.2-.57.33-.9.36H10.8c-2.05-.04-4-.83-5.51-2.21C2.56 7.1.2 2.36.12 2.15a.98.98 0 01.1-1.09C.52.83.88.7 1.25.71h3.12c.24.03.48.12.7.25.2.14.36.32.46.54.32.68.7 1.34 1.1 1.97.97 1.48 1.4 1.82 1.56 1.9.17-.7.22-1.42.14-2.13.03-.32-.03-.64-.15-.94a.99.99 0 00-.58-.21l-.54-.51c-.1-.49.44-.91.82-1.07A6.48 6.48 0 0110.2.23h.52a6.8 6.8 0 011.6.14c1.26.27 1.21 1.28 1.16 2.45 0 .34-.03.73-.03 1.2v.35c-.03.32-.01.64.06.95a6.72 6.72 0 001.54-1.83c.43-.65.8-1.34 1.13-2.06a1.17 1.17 0 011.18-.7h3.18c.1-.01.19-.01.28 0 .74 0 1.18.21 1.36.63.18.4.12 1.22-1.75 3.4l-.74.83c-.36.35-.67.74-.92 1.17.28.32.6.6.95.84.85.64 1.6 1.4 2.22 2.27a1.18 1.18 0 01.2 1.24 1.7 1.7 0 01-1.4.74l-2.81.03-.17-.03zm-3.94-3.57c.66 0 1.24.59 1.86 1.2.33.36.7.68 1.11.96.31.2.67.3 1.04.3h.07l2.82-.03c.14 0 .28-.04.4-.1l-.07-.12a9.78 9.78 0 00-1.99-2c-.88-.75-1.33-1.1-1.39-1.66-.05-.57.37-1.06 1.2-2l.74-.82a7.91 7.91 0 001.52-2.18 4.22 4.22 0 00-.5 0H17.4a.41.41 0 00-.18 0A15.1 15.1 0 0116 4.1c-1.4 2.08-2.06 2.36-2.53 2.36a.89.89 0 01-.41-.1c-.75-.43-.75-1.36-.7-2.04v-.32c0-.48 0-.9.03-1.25.06-1.24 0-1.24-.28-1.31a6.39 6.39 0 00-1.38-.12h-.5a9.7 9.7 0 00-1.42.07l.19.19c.3.48.46 1.04.43 1.6.1 1.23.05 2.81-.74 3.2-.14.06-.29.1-.44.1-.7 0-1.38-.66-2.54-2.41-.45-.68-.85-1.38-1.2-2.1l-.05-.08a.9.9 0 00-.24-.08H1.2c.44.9 2.51 4.88 4.84 6.97 1.3 1.2 2.99 1.88 4.76 1.94h1.37a.74.74 0 00.2-.07v-.07c0-.2 0-1.92 1.17-2.21.1-.04.19-.06.29-.08z" fill="#192144"/></svg>