<svg width="17" height="16" fill="none" xmlns="http://www.w3.org/2000/svg"><path d="M12.12 4c.77 0 1.4-.6 1.4-1.33 0-.74-.63-1.34-1.4-1.34-.77 0-1.4.6-1.4 1.34 0 .73.63 1.33 1.4 1.33zM11.27 7.31a1.46 1.46 0 001.5.55l2.3-.55-.33-1.29-2.31.55-.96-1.38c-.2-.29-.53-.5-.89-.56L7.9 4.1c-.3-.06-.61-.02-.88.11-.28.13-.5.34-.64.6L5.23 7.03l1.24.6 1.16-2.21L9 5.68l-3.55 5.65H2.36v1.34h3.1c.48 0 .94-.25 1.19-.65l1.34-2.13 3.6.69 1.26 3.63 1.33-.42-1.27-3.63a1.34 1.34 0 00-.4-.58c-.18-.16-.4-.26-.65-.31l-2.12-.4 1.24-1.97.29.41z" fill="#1D2E5B"/></svg>