<?xml version="1.0" encoding="utf-8"?><svg viewBox="0 0 202 50" xmlns="http://www.w3.org/2000/svg" xmlns:xlink="http://www.w3.org/1999/xlink"><style>:root>svg{display:none}:root>svg:target{display:block}</style><svg fill="none" viewBox="0 0 8 11" id="arrow" xmlns="http://www.w3.org/2000/svg"><path d="M3.646 10.354a.5.5 0 00.708 0l3.182-3.182a.5.5 0 10-.708-.708L4 9.293 1.172 6.464a.5.5 0 10-.708.708l3.182 3.182zM3.5 0v10h1V0h-1z" fill="#CBCED9"/></svg><svg fill="none" viewBox="0 0 17 16" id="bicycle-svg" xmlns="http://www.w3.org/2000/svg"><path d="M12.95 14a3.1 3.1 0 01-1.67-.48 2.9 2.9 0 01-1.1-1.3 2.76 2.76 0 01.64-3.13 3.13 3.13 0 013.28-.62c.55.22 1.02.58 1.35 1.06a2.79 2.79 0 01-.38 3.63c-.56.54-1.32.84-2.12.84zm0-4.75c-.39 0-.77.11-1.09.32-.32.2-.57.5-.72.84a1.8 1.8 0 00.42 2.04 2.04 2.04 0 002.14.4c.36-.13.66-.38.88-.68a1.82 1.82 0 00-.25-2.37 2 2 0 00-1.38-.55zM4.32 14a3.1 3.1 0 01-1.67-.48 2.9 2.9 0 01-1.1-1.3A2.76 2.76 0 012.2 9.1a3.13 3.13 0 013.28-.62c.54.22 1.01.58 1.34 1.06a2.79 2.79 0 01-.37 3.63c-.57.54-1.33.84-2.13.84zm0-4.75c-.38 0-.76.11-1.09.32-.32.2-.57.5-.72.84a1.8 1.8 0 00.43 2.04 2.04 2.04 0 002.14.4c.35-.13.66-.38.87-.68a1.82 1.82 0 00-.24-2.37 2 2 0 00-1.39-.55zM10.73 4a1.08 1.08 0 00.74-.3 1 1 0 00.3-.7.95.95 0 00-.3-.71 1.03 1.03 0 00-.74-.29 1.09 1.09 0 00-.74.3 1 1 0 00-.3.7.96.96 0 00.3.7 1.05 1.05 0 00.74.3z" fill="#1D2E5B"/><path d="M12.28 6h-1.43c-.02 0-.05 0-.07-.02a.13.13 0 01-.04-.04L9.7 4.12a.98.98 0 00-.3-.34 1.04 1.04 0 00-1.31.1L5.8 6.08a1 1 0 00-.3.7c0 .54.41.73.6.84a105.18 105.18 0 012 1.14l.01.07v2.16c0 .26.22.5.5.5a.54.54 0 00.39-.13.5.5 0 00.16-.36V8.31a.48.48 0 00-.06-.23.5.5 0 00-.16-.17l-1.2-.84A.13.13 0 017.67 7a.12.12 0 01.03-.1l1.38-1.4a.13.13 0 01.1-.04c.03 0 .05 0 .06.02l.05.04.7 1.23c.05.08.12.15.2.2.08.04.17.06.27.06h1.83a.54.54 0 00.37-.15.5.5 0 00.15-.37.535.535 0 00-.54-.48z" fill="#1D2E5B"/></svg><svg fill="none" viewBox="0 0 17 16" id="bus-svg" xmlns="http://www.w3.org/2000/svg"><path d="M4.46 10.86c0-.32-.14-.59-.41-.81a1.5 1.5 0 00-.99-.34c-.38 0-.71.12-.98.34-.27.22-.41.5-.41.8 0 .32.14.6.4.82.28.22.6.33 1 .33.38 0 .7-.11.98-.33.27-.23.4-.5.4-.81zm11.14 0c0-.32-.13-.59-.4-.81a1.5 1.5 0 00-1-.34c-.38 0-.7.12-.98.34-.27.22-.4.5-.4.8 0 .32.13.6.4.82.28.22.6.33.99.33.38 0 .71-.11.98-.33.28-.23.41-.5.41-.81zm-.5-3.54l-.78-3.43a.58.58 0 00-.25-.33.77.77 0 00-.44-.13h-10a.77.77 0 00-.43.13.58.58 0 00-.25.33l-.78 3.43a.5.5 0 00.15.47c.14.14.32.21.54.21h11.56c.21 0 .4-.07.53-.2a.5.5 0 00.15-.48zm-2.46-5.46a.38.38 0 00-.15-.3.56.56 0 00-.37-.13H5.15a.56.56 0 00-.37.12.38.38 0 00-.15.3c0 .13.05.23.15.31.1.08.23.13.37.13h6.97c.14 0 .27-.05.37-.13.1-.08.15-.18.15-.3zM17 8.33v5.38h-1.4v1.15c0 .31-.13.58-.4.8-.28.23-.6.34-1 .34a1.5 1.5 0 01-.98-.33c-.27-.23-.4-.5-.4-.81V13.7H4.46v1.15c0 .31-.14.58-.41.8-.27.23-.6.34-.99.34a1.5 1.5 0 01-.98-.33c-.27-.23-.41-.5-.41-.81V13.7H.27V8.33c0-.67.1-1.33.28-2L1.67 2.3c.06-.47.42-.88 1.06-1.23a8.18 8.18 0 012.5-.8C6.26.1 7.4 0 8.63 0c1.25 0 2.38.09 3.4.27 1.03.18 1.87.44 2.51.8.64.34 1 .75 1.06 1.22l1.15 4.05c.16.6.25 1.27.25 1.99z" fill="#1D2E5B"/></svg><svg fill="none" viewBox="0 0 9 9" id="check-mark" xmlns="http://www.w3.org/2000/svg"><path d="M2.79 8.89L.25 6.12V5c0 .03 0-.03 0 0V3.87l2.53 2.45c.09.09.23.09.32 0L8.5.5v2.63L3.86 8.09l-.75.8c-.1.09-.23.09-.32 0z" fill="#161C35"/></svg><svg fill="none" viewBox="0 0 9 9" id="delete-country" xmlns="http://www.w3.org/2000/svg"><path d="M7.88 1.13L1.13 7.88m0-6.75l6.75 6.75" stroke="#AFB0B5" stroke-linecap="round" stroke-linejoin="round"/></svg><svg fill="none" viewBox="0 0 11 21" id="facebook-img" xmlns="http://www.w3.org/2000/svg"><path d="M7.49 20.77H2.13v-9.52H0v-4.7h2.07c-.16-2.14.23-3.7 1.2-4.76A4.88 4.88 0 016.86.3h3.75v4.54H7.67a4.55 4.55 0 00-.2 1.71h3.15v4.71H7.46l.02 9.52zm-4.17-1.1h2.97v-9.53h3.14V7.67H6.29v-.56c0-1.47 0-2.8.78-3.29l.15-.1h2.2V1.4H6.9a3.88 3.88 0 00-2.74 1.1c-.79.92-1.11 2.44-.87 4.54l.08.61h-2.2v2.5h2.15v9.51z" fill="#192144"/></svg><svg fill="none" viewBox="0 0 17 3" id="filter-expand" xmlns="http://www.w3.org/2000/svg"><circle cx="1.5" cy="1.5" r="1.5" fill="#192144"/><circle cx="8.5" cy="1.5" r="1.5" fill="#192144"/><circle cx="15.5" cy="1.5" r="1.5" fill="#192144"/></svg><svg fill="none" viewBox="0 0 12 12" id="hart" xmlns="http://www.w3.org/2000/svg"><path fill-rule="evenodd" clip-rule="evenodd" d="M6 4.66l.67-1.4c.17-.35.46-.86.86-1.26.4-.4.89-.67 1.47-.67a2.28 2.28 0 012.25 2.3c0 .95-.42 1.63-1.4 2.65-.25.27-.54.55-.86.86-.83.82-1.87 1.84-2.99 3.2a40.57 40.57 0 00-2.99-3.2l-.86-.86C1.17 5.26.75 4.58.75 3.63c0-1.26 1-2.3 2.25-2.3.58 0 1.06.27 1.47.67.4.4.7.9.86 1.26L6 4.66zm.3 6.54a.39.39 0 01-.3.14.37.37 0 01-.3-.14 37.64 37.64 0 00-3.18-3.45C.98 6.22 0 5.25 0 3.63 0 1.93 1.34.54 3 .54c1.2 0 2.04.83 2.55 1.58.2.29.35.57.45.78.13-.27.28-.53.45-.78C6.96 1.37 7.8.54 9 .54c1.66 0 3 1.38 3 3.09 0 1.63-.97 2.59-2.52 4.12-.9.88-1.99 1.95-3.19 3.45z" fill="#192144"/></svg><svg fill="none" viewBox="0 0 27 34" id="html-academy" xmlns="http://www.w3.org/2000/svg"><path d="M13.64.1h-.14L0 1.46v24.1l13.5 7.83L27 25.57V1.47L13.64.1zm11.6 24.49l-11.74 6.8-11.73-6.8V14.7l11.68 6.77.02 1.23-8.02-4.65v1.2l8.04 4.71.02 1.27-8.05-4.66v1.2l8.04 4.7 8.12-4.73v-5.1l3.62-2.1v10.04zm0-11.33L22 15.1l-1.48.86-7.06-4.1-.01 1.2 6.04 3.5-.06.03-.13.07-.86.49-4.98-2.9-.01 1.2 3.93 2.29-.93.6h-.02l-2.97-1.7-.01 1.2 1.94 1.11-1.98 1.17L1.8 13.38l11.63-6.81 11.8 6.7zm0-1.2L13.43 5.3 1.77 12.06V3L13.5 1.8 25.23 3v9.05z" fill="#192144"/></svg><svg fill="none" viewBox="0 0 32 16" id="icon-back-to-main" xmlns="http://www.w3.org/2000/svg"><path fill-rule="evenodd" clip-rule="evenodd" d="M4 16h24a4 4 0 004-4V7a4 4 0 00-4-4H4v2h24a2 2 0 012 2v5a2 2 0 01-2 2H4v2z" fill="#fff"/><path d="M0 4L9 .54v6.92L0 4z" fill="#fff"/></svg><svg fill="none" viewBox="0 0 28 28" id="icon-businessman" xmlns="http://www.w3.org/2000/svg"><path d="M23.38 23.24V19.9a5.85 5.85 0 00-2.81-5.09c-.94-.67-2.95-.8-3.9-.8l-2.13 2.28.8 1.74v4.02L14 23.5l-1.34-1.47v-4.02l.94-1.74L11.32 14c-1.07 0-3.08.13-4.02.8a5.53 5.53 0 00-2 2.28 5.15 5.15 0 00-.68 2.81v3.35s3.49 1.48 9.38 1.48c5.9 0 9.38-1.48 9.38-1.48zM14 3.42c-2.54 0-4.02 2.41-3.62 5.09.4 2.68 1.74 4.55 3.62 4.55 1.88 0 3.21-1.87 3.62-4.55.4-2.81-1.08-5.1-3.62-5.1z" fill="#132576"/></svg><svg fill="none" viewBox="0 0 19 19" id="icon-call" xmlns="http://www.w3.org/2000/svg"><path d="M9.77 8.22c0 .2.16.34.35.34.38 0 .7.32.7.7 0 .18.15.33.34.33.19 0 .34-.15.34-.33 0-.76-.62-1.37-1.38-1.37a.34.34 0 00-.35.33zm5.56 1.37c.2 0 .34-.15.34-.33 0-3.03-2.49-5.5-5.55-5.5a.34.34 0 00-.35.34c0 .19.16.34.35.34a4.85 4.85 0 014.87 4.82c0 .18.15.33.34.33z" fill="#161C35"/><path d="M12.9 9.26c0 .18.16.33.35.33.18 0 .34-.15.34-.33 0-1.9-1.56-3.44-3.47-3.44a.34.34 0 00-.35.34c0 .2.16.34.35.34a2.78 2.78 0 012.78 2.76zM10.12 1.7a.34.34 0 00-.35.34c0 .18.16.33.35.33a6.93 6.93 0 016.96 6.89c0 .18.15.33.34.33.19 0 .34-.15.34-.33a7.61 7.61 0 00-7.64-7.56zm3.33 11.11l-.45.24c-.75.41-1.34 1.53-2.27.69L8.3 11.3 6.2 9.26c-1.06-1.34.13-1.65.54-2.4l.24-.44a2.57 2.57 0 00-.45-3.1c-.5-.49-1.16-.76-1.87-.76-.7 0-1.37.27-1.87.76l-.17.18c-.93.91-1.03 2.48-.3 4.42A16.39 16.39 0 006.2 13.6c2.77 2.73 5.85 4.31 8.06 4.31.88 0 1.62-.25 2.14-.77l.18-.17a2.6 2.6 0 000-3.7c-.82-.81-2.1-1-3.13-.45z" fill="#161C35"/></svg><svg fill="none" viewBox="0 0 14 13" id="icon-check-mark" xmlns="http://www.w3.org/2000/svg"><path d="M5.835 10.464L3.389 7.805V6.722c0 .03 0-.03 0 0V5.64l2.44 2.351c.083.088.219.087.302 0l5.202-5.601v2.527L6.862 9.699V9.7l-.724.764a.209.209 0 01-.303 0z" fill="#161C35"/></svg><svg fill="none" viewBox="0 0 16 16" id="icon-close" xmlns="http://www.w3.org/2000/svg"><path d="M14 2L2 14M2 2l12 12" stroke="#192144" stroke-width="2" stroke-linecap="round" stroke-linejoin="round"/></svg><svg fill="none" viewBox="0 0 16 10" id="icon-filter" xmlns="http://www.w3.org/2000/svg"><path fill="#192144" d="M7.2 0H15v2H7.2zm0 8H15v2H7.2zM0 4h7.8v2H0zm3.9-4h2v2h-2zm0 8h2v2h-2zm5.2-4h2v2h-2zM0 0h2.6v2H0zm0 8h2.6v2H0zm12.4-4H15v2h-2.6z"/></svg><svg fill="none" viewBox="0 0 18 18" id="instagram-img" xmlns="http://www.w3.org/2000/svg"><g clip-path="url(#apclip0_17368_2556)" fill="#192144"><path d="M12.96 2.03c.86 0 1.68.34 2.29.94.6.6.95 1.4.95 2.25v7.8c0 .84-.34 1.65-.95 2.24-.6.6-1.43.94-2.29.94H5.04c-.86 0-1.68-.34-2.28-.94-.61-.6-.95-1.4-.95-2.25V5.22c0-.84.34-1.65.95-2.25.6-.6 1.42-.93 2.28-.94h7.92zm0-1.06H5.04c-1.15 0-2.24.45-3.05 1.25a4.22 4.22 0 00-1.27 3v7.8c0 1.12.46 2.2 1.27 3 .8.8 1.9 1.24 3.05 1.24h7.92c1.15 0 2.24-.45 3.05-1.24a4.22 4.22 0 001.27-3v-7.8c0-1.13-.46-2.2-1.27-3A4.36 4.36 0 0012.96.97z"/><path d="M9 5.99a3.23 3.23 0 012.95 1.93 3.1 3.1 0 01-.69 3.42 3.2 3.2 0 01-5.44-2.22 3.09 3.09 0 01.93-2.22A3.19 3.19 0 019 6zm0-1.07a4.32 4.32 0 00-3.94 2.6 4.14 4.14 0 00.92 4.57 4.3 4.3 0 007.29-2.97 4.13 4.13 0 00-1.25-2.97 4.27 4.27 0 00-3.01-1.23zm4.43.81c.53 0 .96-.42.96-.95a.96.96 0 00-.96-.95.96.96 0 00-.97.95c0 .53.44.95.97.95z"/></g><defs><clipPath id="apclip0_17368_2556"><path fill="#fff" transform="translate(0 .26)" d="M0 0h18v17.71H0z"/></clipPath></defs></svg><svg fill="none" viewBox="0 0 202 50" id="logo-full-desktop" xmlns="http://www.w3.org/2000/svg"><path d="M94 12.64L53.9 50 39.26 2.1 94 12.65z" fill="#FF8D30"/><ellipse cx="94.73" cy="33.9" rx="4.35" ry="4.25" fill="#88BFEB"/><ellipse cx="111.87" cy="21.53" rx="15.17" ry="14.82" fill="#EB9898"/><path fill="#72A73E" d="M102.94 23.3l52.8-19.08 9.94 26.26-52.8 19.08z"/><ellipse cx="110.04" cy="40.64" rx="2.55" ry="2.49" fill="#FFBD30"/><ellipse rx="22.78" ry="9.04" transform="matrix(.97092 .2394 -.25022 .96819 159.1 33.4)" fill="#8EC7F5"/><ellipse cx="176.37" cy="12.21" rx="2.59" ry="2.53" fill="#FFBD30"/><ellipse cx="184.46" cy="9.2" rx="2.59" ry="2.53" fill="#FFBD30"/><path d="M4.03 42.08h6v2.95a1 1 0 01-1 1h-4a1 1 0 01-1-1v-2.95zm37.17 0h6.02v2.95a1 1 0 01-1 1h-4.01a1 1 0 01-1-1v-2.95z" fill="#1D2959"/><path fill-rule="evenodd" clip-rule="evenodd" d="M28.82 3.5a9.95 9.95 0 00-3.38-.8c-.88 0-2.08.38-3.17.82-.61.25-1.22.53-1.8.84-.7.38-1.56.13-1.94-.55a1.39 1.39 0 01.56-1.9 18.24 18.24 0 012.09-.98c1.14-.46 2.76-.9 4.2-.93 1.54-.03 3.27.41 4.5.89.76.3 1.5.63 2.23 1.01.7.37.95 1.22.58 1.9-.37.68-1.25.93-1.94.57a15.61 15.61 0 00-1.93-.87z" fill="#8A4A38"/><path fill-rule="evenodd" clip-rule="evenodd" d="M19.27 1.73c-.64 0-1.16.51-1.16 1.15v.71c0 .53.43.97.97.97h.02V8.2h1.01V4.53h-.25a1.42 1.42 0 00-.27-2.8h-.32zm12.67 0c.64 0 1.16.51 1.16 1.15v.71c0 .53-.43.97-.96.97h-.03V8.2H31.1V4.53h.25a1.42 1.42 0 01.27-2.8h.32z" fill="#F6EF3E"/><path d="M0 16.76a9 9 0 019-9h33.25a9 9 0 019 9v25.32H0V16.76z" fill="#8A4A38"/><ellipse cx="8.05" cy="33.25" rx="5.02" ry="4.91" fill="#EF9A9A"/><ellipse rx="4.81" ry="9.26" transform="matrix(.7051 -.7091 .72546 .68826 39.48 33.42)" fill="#93C6EB"/><path fill="#C2DEA3" d="M19.75 21.32L31.12 9.5l6.73 6.18L26.49 27.5z"/><rect width="8.33" height="6.25" rx="1" transform="matrix(.73793 .67488 -.69199 .7219 10.58 13.26)" fill="#C49A6C"/><path fill="#F57B20" d="M10.04 23.05h7.07v20h-7.07z"/><path d="M10.04 6.47h7.07v17.3a3.53 3.53 0 01-7.07 0V6.46z" fill="#F6A725"/><path fill="#F6EF3E" d="M9.06 21.48h9.03v1.96H9.06z"/><path fill="#F57B20" d="M34.15 23.05h7.07v20h-7.07z"/><path d="M34.15 6.47h7.07v17.3a3.53 3.53 0 01-7.07 0V6.46z" fill="#F6A725"/><path fill="#F6EF3E" d="M33.17 21.48h9.03v1.96h-9.03z"/><g filter="url(#aqfilter0_d_13528_938)" fill="#fff"><path d="M198.54 22.69c.97-.6 1.46-1.54 1.46-2.8 0-1.64-.7-2.93-2.1-3.87a8.16 8.16 0 00-4.81-1.44 8.5 8.5 0 00-4.96 1.56 4.76 4.76 0 00-2.22 4.1c0 .64.2 1.17.61 1.6.4.4 1 .6 1.75.6.74 0 1.3-.2 1.7-.6.4-.43.6-.96.6-1.6a2.2 2.2 0 01.5-1.48c.37-.52 1.04-.78 2.02-.78.81.02 1.4.22 1.75.6.37.39.53.78.5 1.16 0 .27-.1.54-.3.8-.2.28-.4.49-.61.64-.2.15-.52.37-.97.65l-.93.6a3.36 3.36 0 00-1.52 2.88c0 .58.22 1.08.65 1.48.44.39 1.04.58 1.78.58.73 0 1.32-.2 1.75-.58.44-.4.67-.9.67-1.48 0-.26.05-.5.14-.71.1-.22.26-.42.47-.6l.58-.46c.18-.11.43-.27.76-.45.35-.18.6-.32.73-.4zm-24.93 5.3l5.17-6.25a2.85 2.85 0 012.16-1.26c.9-.1 1.7.1 2.38.64.68.53 1 1.24.97 2.13v8.96c0 .56-.23 1.04-.69 1.44-.43.37-.96.56-1.59.56-.62 0-1.16-.19-1.61-.56-.44-.4-.66-.88-.66-1.44v-5.56l-5.16 6.25a2.85 2.85 0 01-2.16 1.26c-.9.1-1.7-.11-2.39-.64-.68-.53-1-1.25-.96-2.14v-8.92c0-.57.22-1.05.65-1.44.46-.4 1-.6 1.62-.6.63 0 1.16.2 1.59.6.45.4.68.87.68 1.44v5.53z"/><path fill-rule="evenodd" clip-rule="evenodd" d="M150.38 32.12V22.4c0-.56-.24-1.04-.72-1.44-.45-.42-1-.63-1.63-.63-.61 0-1.15.2-1.6.63-.46.4-.7.88-.7 1.44v-.24a2.9 2.9 0 00-1.37-1.33 4.74 4.74 0 00-2.35-.58c-1.72 0-3.3.62-4.75 1.86a6.43 6.43 0 00-2.12 5.1c0 2.22.7 3.94 2.09 5.16a7.06 7.06 0 004.78 1.83 5.4 5.4 0 002.32-.47 3.68 3.68 0 001.47-1.18c.11.47.38.87.8 1.18.42.3.9.45 1.43.45.63 0 1.18-.2 1.63-.6.48-.4.72-.9.72-1.47zm-7.33-1.79a2.92 2.92 0 002.84-3c0-1.65-1.27-3-2.84-3a2.92 2.92 0 00-2.83 3c0 1.66 1.27 3 2.83 3z"/><path d="M129.1 25.37v-2.8c0-.58.23-1.06.7-1.46a2.43 2.43 0 011.66-.62c.63 0 1.18.2 1.66.62.47.4.7.88.7 1.45v9.62c0 .57-.23 1.05-.7 1.45-.46.4-1 .6-1.66.6-.65 0-1.21-.2-1.68-.6-.46-.4-.68-.88-.68-1.45v-2.85h-5.12v2.85c0 .57-.23 1.05-.7 1.45-.46.4-1.01.6-1.66.6-.65 0-1.22-.2-1.69-.6-.45-.4-.68-.88-.68-1.45v-9.62c0-.57.24-1.05.71-1.45a2.43 2.43 0 011.66-.62c.63 0 1.18.2 1.65.62.48.4.71.88.71 1.45v2.81h5.12zm-12.22-4.88c.46 0 .86.17 1.19.52.33.34.5 1.13.5 1.61 0 .48-.17.98-.5 1.32-.33.35-.73.47-1.2.47h-3.96v7.82c0 1.48-1.33 2-2.66 2-1.24 0-2.42-.66-2.42-1.99l.04-11.75h9zM88.6 14.58v17.46c0 .58-.32 1.07-.77 1.47-.42.4-1.09.6-1.7.6-.6 0-1.49-.2-1.93-.6-.43-.4-.64-.9-.64-1.47V18.52h-7.13v13.52a1.9 1.9 0 01-.67 1.47c-.42.4-1.29.6-1.9.6a3 3 0 01-1.85-.6c-.42-.4-.64-.9-.64-1.47V14.58H88.6zm15.79 17.51c-1.45 1.32-3.38 1.98-5.8 1.98-2.41 0-4.33-.66-5.76-1.98a6.56 6.56 0 01-2.2-5.04 6.5 6.5 0 012.2-5.04c1.43-1.32 3.35-1.99 5.76-1.99 2.42 0 4.35.67 5.8 1.99a6.6 6.6 0 012.16 5.04 6.6 6.6 0 01-2.16 5.04zm-3.76-7.12c-.4-.41-.9-.66-1.5-.74a2.98 2.98 0 00-2.96 1.16 2.48 2.48 0 00-.44 1.66c0 .83.27 1.52.8 2.07.55.54 1.24.8 2.06.8.85 0 1.54-.25 2.07-.77.53-.53.8-1.23.8-2.1 0-.83-.28-1.52-.83-2.08zm56.52-4.54l9.94.03v11.65c0 .58-.24 1.08-.72 1.5-.47.4-.9.6-1.6.6-.71 0-1.07.06-1.56-.34a2.73 2.73 0 01-.9-1.76v-7.79h-3.28c0 5.59 0 6.82-2.1 8.81a4.23 4.23 0 01-3 1.08c-.73 0-1.16-.17-1.63-.57a2.47 2.47 0 01-.83-1.7 3.5 3.5 0 011.02-2.74c2.1 0 2.01-.5 1.88-4.28v-2.4c.02-.58.13-2.1.13-2.1h2.65zm39.05 10.84c0 1.63-1.41 2.94-3.15 2.94-1.73 0-3.14-1.31-3.14-2.94 0-1.62 1.4-2.93 3.14-2.93 1.74 0 3.14 1.31 3.14 2.93z"/></g><defs><filter id="aqfilter0_d_13528_938" x="69.37" y="13.58" width="132.63" height="23.65" filterUnits="userSpaceOnUse" color-interpolation-filters="sRGB"><feFlood flood-opacity="0" result="BackgroundImageFix"/><feColorMatrix in="SourceAlpha" values="0 0 0 0 0 0 0 0 0 0 0 0 0 0 0 0 0 0 127 0" result="hardAlpha"/><feOffset dy="1"/><feGaussianBlur stdDeviation="1"/><feColorMatrix values="0 0 0 0 0 0 0 0 0 0 0 0 0 0 0 0 0 0 0.3 0"/><feBlend in2="BackgroundImageFix" result="effect1_dropShadow_13528_938"/><feBlend in="SourceGraphic" in2="effect1_dropShadow_13528_938" result="shape"/></filter></defs></svg><svg fill="none" viewBox="0 0 168 42" id="logo-full-tablet" xmlns="http://www.w3.org/2000/svg"><path d="M78.02 10.62L44.74 42 32.59 1.77l45.43 8.85z" fill="#FF8D30"/><ellipse cx="78.62" cy="28.47" rx="3.61" ry="3.57" fill="#88BFEB"/><ellipse cx="92.85" cy="18.09" rx="12.59" ry="12.45" fill="#EB9898"/><path fill="#72A73E" d="M85.44 19.57l43.82-16.03 8.26 22.06L93.7 41.63z"/><ellipse cx="91.33" cy="34.14" rx="2.12" ry="2.09" fill="#FFBD30"/><ellipse rx="18.92" ry="7.59" transform="matrix(.97025 .24212 -.24742 .9689 132.05 28.05)" fill="#8EC7F5"/><ellipse cx="146.38" cy="10.26" rx="2.15" ry="2.13" fill="#FFBD30"/><ellipse cx="153.1" cy="7.73" rx="2.15" ry="2.13" fill="#FFBD30"/><path d="M3.34 35.35h5v2.32a1 1 0 01-1 1h-3a1 1 0 01-1-1v-2.32zm30.86 0h5v2.32a1 1 0 01-1 1h-3a1 1 0 01-1-1v-2.32z" fill="#1D2959"/><path fill-rule="evenodd" clip-rule="evenodd" d="M23.92 2.94a8.18 8.18 0 00-2.8-.68 8.2 8.2 0 00-2.64.7c-.5.21-1 .44-1.49.7-.58.32-1.3.11-1.61-.46-.32-.57-.11-1.28.46-1.6a15 15 0 011.74-.82C18.53.4 19.87.02 21.07 0c1.27-.02 2.7.35 3.72.75.64.25 1.26.52 1.86.85.58.3.8 1.02.48 1.6a1.2 1.2 0 01-1.6.47 13 13 0 00-1.6-.73z" fill="#8A4A38"/><path fill-rule="evenodd" clip-rule="evenodd" d="M16 1.45a.96.96 0 00-.97.96v.62c0 .44.36.8.8.8h.02v3.06h.84V3.81h-.21a1.19 1.19 0 00-.23-2.36h-.26zm10.51 0c.53 0 .96.43.96.96v.62a.8.8 0 01-.8.8h-.02v3.06h-.84V3.81h.22a1.19 1.19 0 01.23-2.36h.25z" fill="#F6EF3E"/><path d="M0 15.52a9 9 0 019-9h24.54a9 9 0 019 9v19.83H0V15.52z" fill="#8A4A38"/><ellipse cx="6.68" cy="27.93" rx="4.17" ry="4.12" fill="#EF9A9A"/><ellipse rx="4.02" ry="7.73" transform="matrix(.70085 -.71331 .72133 .69259 32.77 28.07)" fill="#93C6EB"/><path fill="#C2DEA3" d="M16.4 17.9l9.43-9.92 5.59 5.2-9.43 9.92z"/><rect width="6.96" height="5.22" rx="1" transform="matrix(.7339 .67927 -.68766 .72603 8.79 11.14)" fill="#C49A6C"/><path fill="#F57B20" d="M8.33 19.36h5.87v16.8H8.33z"/><path d="M8.33 5.43h5.87v14.55a2.93 2.93 0 01-5.87 0V5.43z" fill="#F6A725"/><path fill="#F6EF3E" d="M7.52 18.04h7.5v1.65h-7.5z"/><path fill="#F57B20" d="M28.35 19.36h5.87v16.8h-5.87z"/><path d="M28.35 5.43h5.86v14.55a2.93 2.93 0 01-5.86 0V5.43z" fill="#F6A725"/><path fill="#F6EF3E" d="M27.53 18.04h7.5v1.65h-7.5z"/><g filter="url(#arfilter0_d_17237_1793)" fill="#fff"><path d="M164.79 19.06c.8-.51 1.21-1.3 1.21-2.35 0-1.38-.58-2.47-1.74-3.26a6.72 6.72 0 00-4-1.2 7 7 0 00-4.11 1.3c-1.23.87-1.85 2.02-1.85 3.46 0 .53.17.98.51 1.33.34.34.83.5 1.46.5.6 0 1.08-.16 1.4-.5.34-.35.5-.8.5-1.33-.02-.41.11-.83.42-1.25.3-.44.86-.66 1.67-.66.68.02 1.16.19 1.45.51.31.32.45.65.42.97 0 .23-.09.45-.25.68-.16.23-.33.4-.5.53-.17.13-.43.3-.8.55l-.78.5a2.83 2.83 0 00-1.26 2.42c0 .49.18.9.53 1.24.38.33.87.49 1.48.49s1.1-.16 1.45-.49c.38-.33.56-.75.56-1.24 0-.22.04-.41.12-.6.08-.18.21-.35.39-.5l.48-.38c.15-.1.36-.23.63-.38.3-.16.5-.27.6-.34zM144.1 23.5l4.29-5.24a2.36 2.36 0 011.79-1.06 2.6 2.6 0 011.98.54c.56.45.83 1.04.8 1.8v7.51c0 .48-.19.88-.57 1.21-.36.32-.8.48-1.32.48-.51 0-.96-.16-1.34-.48a1.58 1.58 0 01-.54-1.2v-4.67l-4.3 5.25c-.43.63-1.03.98-1.78 1.05a2.6 2.6 0 01-1.98-.54 2.05 2.05 0 01-.8-1.79v-7.5c0-.47.18-.87.54-1.2.38-.34.82-.5 1.34-.5.52 0 .96.16 1.32.5.38.33.57.73.57 1.2v4.65z"/><path fill-rule="evenodd" clip-rule="evenodd" d="M124.82 26.98v-8.16c0-.47-.2-.87-.6-1.2a1.93 1.93 0 00-1.35-.54c-.51 0-.95.18-1.34.53-.38.34-.57.74-.57 1.21v-.2a2.42 2.42 0 00-1.14-1.12 3.9 3.9 0 00-1.95-.48c-1.43 0-2.74.52-3.95 1.56a5.43 5.43 0 00-1.76 4.29c0 1.86.58 3.3 1.74 4.33a5.82 5.82 0 003.97 1.54c.73 0 1.37-.13 1.93-.4.55-.28.96-.6 1.21-.99.1.4.32.73.67 1a2 2 0 001.19.37c.52 0 .97-.17 1.35-.51.4-.34.6-.75.6-1.23zm-6.09-1.5c1.3 0 2.36-1.13 2.36-2.52 0-1.4-1.06-2.52-2.36-2.52-1.3 0-2.35 1.13-2.35 2.52 0 1.4 1.05 2.52 2.35 2.52z"/><path d="M107.15 21.31v-2.36c0-.48.2-.88.59-1.22a2 2 0 011.37-.52 2 2 0 011.38.52c.39.34.59.74.59 1.22v8.08c0 .48-.2.89-.6 1.22a2 2 0 01-1.37.5c-.54 0-1-.17-1.4-.5a1.57 1.57 0 01-.56-1.22v-2.4h-4.25v2.4c0 .48-.2.89-.58 1.22a2 2 0 01-1.38.5c-.54 0-1-.17-1.4-.5a1.57 1.57 0 01-.56-1.22v-8.08c0-.48.2-.88.59-1.22a2 2 0 011.37-.52 2 2 0 011.38.52c.39.34.59.74.59 1.22v2.36h4.24zM97 17.21c.4 0 .72.15 1 .43.27.3.41.96.41 1.36 0 .4-.14.82-.41 1.11-.28.3-.6.4-1 .4h-3.28v6.56c0 1.25-1.1 1.68-2.21 1.68-1.03 0-2.01-.55-2.01-1.67l.03-9.87h7.48zm-23.46-4.96v14.67c0 .48-.27.89-.64 1.23-.35.33-.9.5-1.41.5-.5 0-1.24-.17-1.6-.5a1.64 1.64 0 01-.53-1.23V15.56h-5.92v11.36c0 .48-.19.89-.56 1.23-.35.33-1.07.5-1.57.5s-1.17-.17-1.54-.5a1.64 1.64 0 01-.53-1.23V12.25h14.3zm13.1 14.7a6.78 6.78 0 01-4.8 1.67c-2.01 0-3.6-.56-4.79-1.67a5.54 5.54 0 01-1.82-4.23c0-1.7.6-3.12 1.82-4.23 1.18-1.11 2.78-1.67 4.78-1.67 2.01 0 3.61.56 4.81 1.67a5.58 5.58 0 011.8 4.23c0 1.7-.6 3.1-1.8 4.23zm-3.12-5.97a2.05 2.05 0 00-1.24-.63 2.57 2.57 0 00-1.37.13c-.42.17-.78.45-1.08.85-.29.4-.4.86-.37 1.39 0 .7.22 1.28.66 1.74.45.45 1.03.68 1.71.68.7 0 1.28-.22 1.72-.65.44-.45.66-1.04.66-1.77 0-.7-.23-1.28-.69-1.74zm46.92-3.82l8.25.03v9.79c0 .48-.2.9-.6 1.26-.4.33-.74.5-1.33.5-.59 0-.89.04-1.3-.3a2.3 2.3 0 01-.74-1.46v-6.55H132c0 4.7 0 5.72-1.75 7.4-.64.6-1.47.9-2.48.9-.6 0-.96-.14-1.35-.47a2.08 2.08 0 01-.69-1.44c0-1.12.24-1.56.85-2.3 1.74 0 1.67-.41 1.56-3.59v-2.01c.01-.49.1-1.76.1-1.76h2.2zm32.4 9.11a2.54 2.54 0 01-2.6 2.47c-1.45 0-2.61-1.1-2.61-2.47a2.54 2.54 0 012.6-2.47c1.44 0 2.61 1.1 2.61 2.47z"/></g><defs><filter id="arfilter0_d_17237_1793" x="57.24" y="11.25" width="110.76" height="20.5" filterUnits="userSpaceOnUse" color-interpolation-filters="sRGB"><feFlood flood-opacity="0" result="BackgroundImageFix"/><feColorMatrix in="SourceAlpha" values="0 0 0 0 0 0 0 0 0 0 0 0 0 0 0 0 0 0 127 0" result="hardAlpha"/><feOffset dy="1"/><feGaussianBlur stdDeviation="1"/><feColorMatrix values="0 0 0 0 0 0 0 0 0 0 0 0 0 0 0 0 0 0 0.3 0"/><feBlend in2="BackgroundImageFix" result="effect1_dropShadow_17237_1793"/><feBlend in="SourceGraphic" in2="effect1_dropShadow_17237_1793" result="shape"/></filter></defs></svg><svg fill="none" viewBox="0 0 96 15" id="logo-mobile" xmlns="http://www.w3.org/2000/svg"><path d="M94.91 6.19C95.64 5.73 96 5.02 96 4.06a3.4 3.4 0 00-1.57-2.96 6 6 0 00-3.6-1.1c-1.34 0-2.57.4-3.7 1.2a3.66 3.66 0 00-1.65 3.12c0 .5.16.9.46 1.22.3.3.74.46 1.3.46s.98-.16 1.27-.46c.3-.33.46-.73.46-1.22-.03-.37.1-.75.37-1.13.27-.4.77-.6 1.5-.6.6.02 1.04.17 1.3.47.28.3.4.59.38.88 0 .2-.08.41-.22.62-.15.2-.3.36-.46.48-.14.11-.38.28-.72.5l-.7.46a2.58 2.58 0 00-1.13 2.19c0 .45.16.82.48 1.13.34.3.78.44 1.33.44s.99-.14 1.3-.44c.34-.3.5-.68.5-1.13a1.32 1.32 0 01.46-1l.44-.35c.13-.09.32-.2.57-.34l.54-.31zM76.3 10.24l3.86-4.78c.4-.57.93-.9 1.61-.96.68-.08 1.27.09 1.78.5.51.4.75.94.72 1.62v6.84c0 .43-.17.8-.5 1.1a1.8 1.8 0 01-1.2.43 1.8 1.8 0 01-1.2-.43c-.33-.3-.49-.67-.49-1.1V9.2L77.03 14c-.4.57-.94.9-1.61.96a2.32 2.32 0 01-1.78-.5c-.51-.4-.75-.94-.72-1.62V6c0-.43.16-.8.48-1.1.34-.3.74-.45 1.21-.45s.86.15 1.19.45c.34.3.5.67.5 1.1v4.23z" fill="#fff"/><path fill-rule="evenodd" clip-rule="evenodd" d="M58.97 13.39V5.98c0-.43-.18-.8-.54-1.1a1.73 1.73 0 00-1.22-.48c-.45 0-.85.16-1.2.48-.34.3-.5.67-.5 1.1V5.8c-.18-.4-.52-.74-1.03-1.02-.52-.3-1.1-.44-1.76-.44-1.28 0-2.47.47-3.55 1.42a4.97 4.97 0 00-1.58 3.9c0 1.68.52 3 1.56 3.93a5.2 5.2 0 003.57 1.4c.66 0 1.23-.12 1.73-.36.5-.26.87-.56 1.1-.9.08.36.28.66.6.9.3.22.66.34 1.06.34.47 0 .88-.16 1.22-.46.36-.3.54-.68.54-1.12zm-5.47-1.36c1.17 0 2.11-1.03 2.11-2.3 0-1.26-.94-2.29-2.11-2.29s-2.12 1.03-2.12 2.3c0 1.26.95 2.29 2.12 2.29z" fill="#fff"/><path d="M43.08 8.24V6.09c0-.43.18-.8.53-1.1a1.8 1.8 0 011.24-.48c.47 0 .88.16 1.23.48.36.3.53.67.53 1.1v7.35c0 .43-.17.8-.53 1.1-.34.3-.75.46-1.23.46-.49 0-.9-.15-1.26-.46-.34-.3-.5-.67-.5-1.1v-2.18h-3.83v2.18c0 .43-.17.8-.53 1.1-.33.3-.75.46-1.23.46-.49 0-.9-.15-1.26-.46-.34-.3-.5-.67-.5-1.1V6.09c0-.43.17-.8.52-1.1a1.8 1.8 0 011.24-.48c.47 0 .88.16 1.23.48.36.3.53.67.53 1.1v2.15h3.82zm-9.12-3.73c.35 0 .64.13.9.4.24.26.36.86.36 1.23s-.12.75-.37 1c-.25.27-.54.36-.89.36H31v5.97c0 1.13-.99 1.53-1.99 1.53-.92 0-1.8-.5-1.8-1.52l.03-8.97h6.72zM12.86 0v13.33c0 .44-.24.81-.57 1.12-.32.3-.82.46-1.28.46-.45 0-1.1-.15-1.44-.46a1.5 1.5 0 01-.47-1.12V3.01H3.77v10.32c0 .44-.16.81-.5 1.12-.31.3-.96.46-1.41.46a2.2 2.2 0 01-1.38-.46A1.5 1.5 0 010 13.33V0h12.86zm11.78 13.37a6.06 6.06 0 01-4.32 1.51c-1.8 0-3.24-.5-4.3-1.52a5.06 5.06 0 01-1.64-3.84c0-1.56.54-2.84 1.64-3.85a5.97 5.97 0 014.3-1.51c1.8 0 3.24.5 4.32 1.51a5.1 5.1 0 011.61 3.85 5.1 5.1 0 01-1.61 3.85zm-2.8-5.44c-.3-.31-.68-.5-1.12-.56a2.29 2.29 0 00-1.24.11c-.38.15-.7.4-.97.77-.25.36-.36.79-.33 1.27 0 .63.2 1.16.6 1.58.4.4.92.61 1.54.61.63 0 1.14-.2 1.54-.59.4-.4.6-.94.6-1.6 0-.64-.21-1.16-.62-1.59zm42.18-3.47l7.42.03v8.9c0 .44-.18.82-.54 1.14-.35.3-.66.46-1.2.46-.52 0-.8.04-1.16-.27a2.1 2.1 0 01-.66-1.33V7.44h-2.46c0 4.26 0 5.2-1.57 6.72-.58.55-1.33.83-2.24.83-.54 0-.86-.13-1.21-.44a1.9 1.9 0 01-.62-1.3c0-1.02.22-1.43.76-2.09 1.57 0 1.5-.38 1.4-3.27V6.06l.1-1.6h1.98zm29.14 8.29a2.3 2.3 0 01-2.34 2.24c-1.3 0-2.35-1-2.35-2.24a2.3 2.3 0 012.35-2.25c1.29 0 2.34 1 2.34 2.25z" fill="#fff"/></svg><svg fill="none" viewBox="0 0 17 14" id="mail-icon" xmlns="http://www.w3.org/2000/svg"><path d="M1.02 2.33l6.75 4.23c.22.14.52.2.81.2.3 0 .6-.06.82-.2l6.75-4.23c.44-.28.85-1.36.05-1.36H.97c-.8 0-.4 1.08.05 1.36zm15.33 2.3L9.4 8.88c-.3.18-.52.2-.82.2-.3 0-.5-.02-.81-.2L.85 4.64C.5 4.42.5 4.67.5 4.87v7.66c0 .44.5 1.04.9 1.04h14.4c.4 0 .9-.6.9-1.04V4.87c0-.2 0-.45-.35-.23z" fill="#161C35"/></svg><svg fill="none" viewBox="0 0 19 13" id="menu-mail" xmlns="http://www.w3.org/2000/svg"><path fill-rule="evenodd" clip-rule="evenodd" d="M16.14 10.47L11.8 6.5l4.33-3.97-.6-.63-6.29 5.77-6.3-5.77-.59.63L6.7 6.5l-4.33 3.97.6.63 4.37-4.01 1.92 1.75 1.92-1.75 4.38 4 .59-.62zM1.58.25C.77.25.1.95.1 1.81v9.38c0 .86.65 1.56 1.47 1.56h15.34c.81 0 1.47-.7 1.47-1.56V1.81c0-.86-.65-1.56-1.47-1.56H1.58z" fill="#FFD74B"/></svg><svg fill="none" viewBox="0 0 17 15" id="menu-phone" xmlns="http://www.w3.org/2000/svg"><path fill-rule="evenodd" clip-rule="evenodd" d="M8.5.09C5.7.09 2.9.56 1.88 1.5 1.04 2.28.76 3.66.66 4.54l-.01.12c0 .34.3.62.65.62l2.57-.2h.07c.35-.02.64-.29.64-.63V3.24c0-.38.32-.68.72-.68h6.4c.4 0 .72.3.72.68v1.21c0 .34.29.61.64.62l.07.01 2.57.2c.36 0 .65-.28.65-.62l-.01-.12c-.1-.88-.38-2.26-1.22-3.04C14.1.56 11.3.1 8.5.1zm0 8.03c-.72 0-1.3.55-1.3 1.23 0 .69.58 1.24 1.3 1.24.72 0 1.3-.55 1.3-1.24 0-.68-.58-1.23-1.3-1.23zm-.98-2.78v-.77a.8.8 0 00-.82-.78.8.8 0 00-.82.78v.77l-4.4 4.45c-.31.28-.5.67-.5 1.1v1.24c0 .69.58 1.24 1.3 1.24h.33v.77c0 .43.37.77.82.77a.8.8 0 00.82-.77v-.77h8.5v.77c0 .43.37.77.82.77a.8.8 0 00.82-.77v-.77h.32c.73 0 1.31-.55 1.31-1.24V10.9c0-.43-.19-.82-.5-1.1l-4.4-4.45v-.77c0-.43-.37-.78-.82-.78a.8.8 0 00-.82.78v.77H7.52zm.98 1.54c1.45 0 2.62 1.1 2.62 2.47a2.55 2.55 0 01-2.62 2.47 2.55 2.55 0 01-2.62-2.47A2.55 2.55 0 018.5 6.88z" fill="#FFD74B"/></svg><svg fill="none" viewBox="0 0 12 12" id="person-icon" xmlns="http://www.w3.org/2000/svg"><path opacity=".1" d="M3.375 2.93c0 1.523 1.178 2.763 2.625 2.763s2.625-1.24 2.625-2.763C8.625 1.406 7.447.167 6 .167S3.375 1.407 3.375 2.93zm7.292 8.903h.583v-.614c0-2.37-1.832-4.298-4.083-4.298H4.833C2.582 6.921.75 8.85.75 11.219v.614h9.917z" fill="#192144"/></svg><svg fill="none" viewBox="0 0 16 18" id="phone-header" xmlns="http://www.w3.org/2000/svg"><path d="M11.1 8.46c0 .18.16.33.35.33.18 0 .34-.15.34-.33 0-1.9-1.56-3.44-3.47-3.44a.34.34 0 00-.35.34c0 .2.16.34.35.34a2.78 2.78 0 012.78 2.76zM8.32.9a.34.34 0 00-.35.34c0 .18.16.33.35.33a6.93 6.93 0 016.96 6.89c0 .18.15.33.34.33.19 0 .34-.15.34-.33A7.61 7.61 0 008.32.9zm3.33 11.11l-.45.24c-.75.41-1.34 1.53-2.27.69L6.5 10.5 4.4 8.46c-1.06-1.34.13-1.65.54-2.4l.24-.44a2.57 2.57 0 00-.45-3.1c-.5-.49-1.16-.76-1.87-.76-.7 0-1.37.27-1.87.76l-.17.18c-.93.91-1.03 2.48-.3 4.42A16.39 16.39 0 004.4 12.8c2.77 2.73 5.85 4.31 8.06 4.31.88 0 1.62-.25 2.14-.77l.18-.17a2.6 2.6 0 000-3.7c-.82-.81-2.1-1-3.13-.45z" fill="#161C35"/></svg><svg fill="none" viewBox="0 0 14 16" id="plane-svg" xmlns="http://www.w3.org/2000/svg"><path d="M12.75.86c-.58.13-1.17.26-1.39.62l-1.7 3.18L.59 6.7.21 7.72l6.96.62-1.18 2.75-2.64.6-.66 1.08 1.9.19.22.89c.1.3.44.52.73.45l.88-.2 1.01 1.64.67-1.08-.65-2.65 1.9-2.3L13 15.74l.73-.78L11.5 5.8l2.06-2.95c.22-.36.08-.95-.07-1.54-.07-.3-.44-.53-.73-.46z" fill="#1D2E5B"/></svg><svg fill="none" viewBox="0 0 17 21" id="point" xmlns="http://www.w3.org/2000/svg"><path d="M8.5 0A7.876 7.876 0 00.625 7.875c0 5.058 3.803 7.27 4.644 8.279C7.29 18.577 7.403 21 8.5 21s1.212-2.423 3.23-4.846c.841-1.01 4.645-3.22 4.645-8.279A7.876 7.876 0 008.5 0zm0 13.125a5.25 5.25 0 110-10.5 5.25 5.25 0 010 10.5zm0-7.875a2.626 2.626 0 000 5.25 2.626 2.626 0 000-5.25z" fill="#FFD74B"/></svg><svg fill="none" viewBox="0 0 9 19" id="previous" xmlns="http://www.w3.org/2000/svg"><path d="M8.812.4a1.064 1.064 0 00-.345-.26.958.958 0 00-.814 0c-.13.06-.246.149-.345.26L.248 8.373a.972.972 0 00-.183.31 1.063 1.063 0 000 .732.972.972 0 00.183.31l7.06 7.972a.978.978 0 001.504 0c.416-.47.071-.964-.345-1.434l-3.718-4.178-2.62-3.067 6.692-7.714s.407-.442-.01-.902z" fill="#000"/></svg><svg fill="none" viewBox="0 0 13 11" id="red-hart" xmlns="http://www.w3.org/2000/svg"><path d="M3.26.47c1.69 0 3.06 1.35 3.06 3.01a3.04 3.04 0 013.06-3c1.7 0 3.07 1.34 3.07 3 0 2.5-2.48 3.4-5.83 7.38a.4.4 0 01-.6 0C2.67 6.87.19 6 .19 3.48a3.04 3.04 0 013.07-3z" fill="#F02323"/></svg><svg fill="none" viewBox="0 0 12 9" id="select-open" xmlns="http://www.w3.org/2000/svg"><path d="M.638 1.098a.862.862 0 00-.162.275.946.946 0 000 .649.861.861 0 00.162.274l4.96 5.627c.056.063.121.113.193.147a.534.534 0 00.456 0 .596.596 0 00.193-.147l4.96-5.627a.928.928 0 000-1.198c-.293-.332-.6-.057-.892.275l-2.6 2.963L6 6.424 1.2 1.091S.925.766.638 1.098z" fill="#000" fill-opacity=".3"/></svg><svg fill="none" viewBox="0 0 18 18" id="show-more" xmlns="http://www.w3.org/2000/svg"><rect y="8.31" width="18" height="1.38" rx=".69" fill="#1D2E5B"/><rect x="8.31" y="18" width="18" height="1.38" rx=".69" transform="rotate(-90 8.3 18)" fill="#1D2E5B"/></svg><svg fill="none" viewBox="0 0 23 12" id="vkontakte-img" xmlns="http://www.w3.org/2000/svg"><path d="M17.77 11.85a3.02 3.02 0 01-1.55-.46c-.48-.32-.92-.7-1.32-1.13-.32-.32-.87-.87-1.07-.87-.21 0-.36.68-.35 1.16 0 .33-.12.65-.35.9-.26.2-.57.33-.9.36H10.8c-2.05-.04-4-.83-5.51-2.21C2.56 7.1.2 2.36.12 2.15a.98.98 0 01.1-1.09C.52.83.88.7 1.25.71h3.12c.24.03.48.12.7.25.2.14.36.32.46.54.32.68.7 1.34 1.1 1.97.97 1.48 1.4 1.82 1.56 1.9.17-.7.22-1.42.14-2.13.03-.32-.03-.64-.15-.94a.99.99 0 00-.58-.21l-.54-.51c-.1-.49.44-.91.82-1.07A6.48 6.48 0 0110.2.23h.52a6.8 6.8 0 011.6.14c1.26.27 1.21 1.28 1.16 2.45 0 .34-.03.73-.03 1.2v.35c-.03.32-.01.64.06.95a6.72 6.72 0 001.54-1.83c.43-.65.8-1.34 1.13-2.06a1.17 1.17 0 011.18-.7h3.18c.1-.01.19-.01.28 0 .74 0 1.18.21 1.36.63.18.4.12 1.22-1.75 3.4l-.74.83c-.36.35-.67.74-.92 1.17.28.32.6.6.95.84.85.64 1.6 1.4 2.22 2.27a1.18 1.18 0 01.2 1.24 1.7 1.7 0 01-1.4.74l-2.81.03-.17-.03zm-3.94-3.57c.66 0 1.24.59 1.86 1.2.33.36.7.68 1.11.96.31.2.67.3 1.04.3h.07l2.82-.03c.14 0 .28-.04.4-.1l-.07-.12a9.78 9.78 0 00-1.99-2c-.88-.75-1.33-1.1-1.39-1.66-.05-.57.37-1.06 1.2-2l.74-.82a7.91 7.91 0 001.52-2.18 4.22 4.22 0 00-.5 0H17.4a.41.41 0 00-.18 0A15.1 15.1 0 0116 4.1c-1.4 2.08-2.06 2.36-2.53 2.36a.89.89 0 01-.41-.1c-.75-.43-.75-1.36-.7-2.04V4c0-.48 0-.9.03-1.25.06-1.24 0-1.24-.28-1.31a6.39 6.39 0 00-1.38-.12h-.5a9.7 9.7 0 00-1.42.07l.19.19c.3.48.46 1.04.43 1.6.1 1.23.05 2.81-.74 3.2-.14.06-.29.1-.44.1-.7 0-1.38-.66-2.54-2.41a18.3 18.3 0 01-1.2-2.1l-.05-.08a.9.9 0 00-.24-.08H1.2c.44.9 2.51 4.88 4.84 6.97 1.3 1.2 2.99 1.88 4.76 1.94h1.37a.74.74 0 00.2-.07v-.07c0-.2 0-1.92 1.17-2.21.1-.04.19-.06.29-.08z" fill="#192144"/></svg><svg fill="none" viewBox="0 0 17 16" id="walk-svg" xmlns="http://www.w3.org/2000/svg"><path d="M12.12 4c.77 0 1.4-.6 1.4-1.33 0-.74-.63-1.34-1.4-1.34-.77 0-1.4.6-1.4 1.34 0 .73.63 1.33 1.4 1.33zm-.85 3.31a1.46 1.46 0 001.5.55l2.3-.55-.33-1.29-2.31.55-.96-1.38c-.2-.29-.53-.5-.89-.56L7.9 4.1a1.4 1.4 0 00-.88.11c-.28.13-.5.34-.64.6L5.23 7.03l1.24.6 1.16-2.21L9 5.68l-3.55 5.65H2.36v1.34h3.1c.48 0 .94-.25 1.19-.65l1.34-2.13 3.6.69 1.26 3.63 1.33-.42-1.27-3.63a1.34 1.34 0 00-.4-.58c-.18-.16-.4-.26-.65-.31l-2.12-.4 1.24-1.97.29.41z" fill="#1D2E5B"/></svg></svg>